<svg xmlns="http://www.w3.org/2000/svg" width="73" height="74" viewBox="0 0 73 74">
  <g id="Group_688" data-name="Group 688" transform="translate(-0.321 -0.162)">
    <g id="Ellipse_7" data-name="Ellipse 7" transform="translate(0.321 0.162)" fill="none" stroke="#ff4e00" stroke-width="3">
      <ellipse cx="36.5" cy="37" rx="36.5" ry="37" stroke="none"/>
      <ellipse cx="36.5" cy="37" rx="35" ry="35.5" fill="none"/>
    </g>
    <g id="truck" transform="translate(13.048 22.31)">
      <g id="Group_202" data-name="Group 202" transform="translate(0 0)">
        <g id="Group_201" data-name="Group 201" transform="translate(0 0)">
          <path id="Path_3709" data-name="Path 3709" d="M43.584,106.629l-1.214-4.854a.734.734,0,0,0,.581-.718v-.783a3.085,3.085,0,0,0-3.082-3.082H34.341V95.578a1.518,1.518,0,0,0-1.517-1.516H4.647a1.518,1.518,0,0,0-1.517,1.516v13.306a.734.734,0,1,0,1.468,0V95.578a.049.049,0,0,1,.049-.049H32.825a.049.049,0,0,1,.049.049v13.306a.734.734,0,1,0,1.468,0v-.832H43a2.4,2.4,0,0,1,2.28,1.663H43a.734.734,0,0,0-.734.734v1.565a2.3,2.3,0,0,0,2.3,2.3H45.4v3.229H43.478a4.646,4.646,0,0,0-8.784,0h-.353v-5.528a.734.734,0,0,0-1.468,0v5.528H17.649a4.646,4.646,0,0,0-8.784,0H4.647a.049.049,0,0,1-.049-.049V115.88h3.18a.734.734,0,1,0,0-1.468H.734a.734.734,0,1,0,0,1.468h2.4v1.614a1.518,1.518,0,0,0,1.517,1.516H8.611c0,.016,0,.033,0,.049a4.647,4.647,0,1,0,9.295,0c0-.016,0-.033,0-.049H34.44c0,.016,0,.033,0,.049a4.647,4.647,0,1,0,9.295,0c0-.016,0-.033,0-.049h2.4a.734.734,0,0,0,.734-.734V110.45A3.87,3.87,0,0,0,43.584,106.629ZM34.341,98.66h5.528a1.616,1.616,0,0,1,1.614,1.614v.049H34.341Zm0,7.925v-4.794h6.52l1.2,4.794ZM13.257,122.239a3.18,3.18,0,1,1,3.18-3.18A3.183,3.183,0,0,1,13.257,122.239Zm25.829,0a3.18,3.18,0,1,1,3.18-3.18A3.183,3.183,0,0,1,39.086,122.239Zm6.311-9.392h-.832a.833.833,0,0,1-.832-.832v-.832H45.4v1.663Z" transform="translate(0 -94.062)" fill="#ff4e00"/>
        </g>
      </g>
      <g id="Group_204" data-name="Group 204" transform="translate(11.741 23.481)">
        <g id="Group_203" data-name="Group 203" transform="translate(0 0)">
          <path id="Path_3710" data-name="Path 3710" d="M129.783,350.6a1.516,1.516,0,1,0,1.516,1.516A1.518,1.518,0,0,0,129.783,350.6Z" transform="translate(-128.267 -350.597)" fill="#ff4e00"/>
        </g>
      </g>
      <g id="Group_206" data-name="Group 206" transform="translate(37.57 23.481)">
        <g id="Group_205" data-name="Group 205" transform="translate(0 0)">
          <path id="Path_3711" data-name="Path 3711" d="M411.971,350.6a1.516,1.516,0,1,0,1.517,1.516A1.518,1.518,0,0,0,411.971,350.6Z" transform="translate(-410.455 -350.597)" fill="#ff4e00"/>
        </g>
      </g>
      <g id="Group_208" data-name="Group 208" transform="translate(18.785 20.35)">
        <g id="Group_207" data-name="Group 207" transform="translate(0 0)">
          <path id="Path_3712" data-name="Path 3712" d="M216.919,316.393H205.961a.734.734,0,1,0,0,1.468h10.958a.734.734,0,1,0,0-1.468Z" transform="translate(-205.227 -316.393)" fill="#ff4e00"/>
        </g>
      </g>
      <g id="Group_210" data-name="Group 210" transform="translate(1.565 17.22)">
        <g id="Group_209" data-name="Group 209">
          <path id="Path_3713" data-name="Path 3713" d="M27.228,282.188H17.836a.734.734,0,0,0,0,1.468h9.392a.734.734,0,0,0,0-1.468Z" transform="translate(-17.102 -282.188)" fill="#ff4e00"/>
        </g>
      </g>
      <g id="Group_212" data-name="Group 212" transform="translate(13.306 7.044)">
        <g id="Group_211" data-name="Group 211" transform="translate(0 0)">
          <path id="Path_3714" data-name="Path 3714" d="M157.58,171.237a.734.734,0,0,0-1.038,0l-6.526,6.525-3.395-3.395a.734.734,0,0,0-1.038,1.038l3.914,3.914a.734.734,0,0,0,1.038,0l7.044-7.044A.734.734,0,0,0,157.58,171.237Z" transform="translate(-145.37 -171.023)" fill="#ff4e00"/>
        </g>
      </g>
    </g>
  </g>
</svg>
