<?xml version="1.0"?>
<svg xmlns="http://www.w3.org/2000/svg" id="Outline" viewBox="0 0 64 64" width="512" height="512"><g><path d="M32.78,32.375a1.032,1.032,0,0,0-1.56,0C30.686,33.041,26,38.975,26,42a6,6,0,0,0,12,0C38,38.975,33.314,33.041,32.78,32.375ZM32,46a4,4,0,0,1-4-4c0-1.522,2.208-4.972,4-7.365,1.792,2.393,4,5.843,4,7.365A4,4,0,0,1,32,46Z"/><path d="M28,50a1,1,0,0,0,0,2h8a1,1,0,0,0,0-2Z"/><path d="M53.768,18.7,41.781,4.358A1,1,0,0,0,41.014,4h-8.2a1,1,0,0,0-.725.312L12.345,25.128l.536-4.56,5.76-4.8a1,1,0,0,0-1.282-1.538L13.221,17.68,13.889,12H22a1,1,0,0,0,1-1V3a1,1,0,0,0-1-1H12a1,1,0,0,0-1,1v8a.987.987,0,0,0,.878.975L10.007,27.883l.015,0A1.111,1.111,0,0,0,10,28v5a1,1,0,0,0,2,0V28.4L33.242,6h7.3L52,19.708V44a1,1,0,0,0,2,0V19.346A1,1,0,0,0,53.768,18.7ZM21,4V6H20a1,1,0,0,0,0,2h1v2H13V8h3a1,1,0,0,0,0-2H13V4Z"/><path d="M30.307,20.948a1,1,0,1,0-.428,1.953l18.907,4.142a.974.974,0,0,0,.214.023,1,1,0,0,0,1-1V20.654A1,1,0,0,0,49.759,20L39.745,8.349A1,1,0,0,0,38.986,8h-3.8a1,1,0,0,0-.837.454l-6.141,9.424a1,1,0,1,0,1.676,1.092L35.729,10h2.8L48,21.025v3.8Z"/><path d="M53,47a1,1,0,0,0-1,1v9a3,3,0,0,1-3,3H15a3,3,0,0,1-3-3V37a1,1,0,0,0-2,0V57a5.006,5.006,0,0,0,5,5H49a5.006,5.006,0,0,0,5-5V48A1,1,0,0,0,53,47Z"/><path d="M17,51a1,1,0,0,0-1,1v3a1,1,0,0,0,1,1H41a1,1,0,0,0,.707-.293l6-6A1,1,0,0,0,48,49V31a1,1,0,0,0-.785-.977l-22.729-5a1,1,0,0,0-.851.206l-7.272,6A1,1,0,0,0,16,32V48a1,1,0,0,0,2,0V32.472l6.532-5.391L46,31.8V48.586L40.586,54H18V52A1,1,0,0,0,17,51Z"/></g></svg>
