<?xml version="1.0"?>
<svg xmlns="http://www.w3.org/2000/svg" id="Layer_1" data-name="Layer 1" viewBox="0 0 512 512" width="512" height="512"><title> Screwdriver Wrench</title><path d="M195.256,328.55l-80.527,80.528a7,7,0,0,0,9.9,9.9l80.528-80.528a7,7,0,1,0-9.9-9.9Z"/><path d="M183.45,306.844a7,7,0,0,0-9.9,0L93.023,387.372a7,7,0,1,0,9.9,9.9l80.528-80.527A7,7,0,0,0,183.45,306.844Z"/><path d="M178.906,234.392l14.4,14.4-16.772,9.178a7.012,7.012,0,0,0-1.589,1.191L61.11,372.99a41.392,41.392,0,0,0,0,58.471L80.539,450.89a41.393,41.393,0,0,0,58.471,0L252.842,337.058a7.012,7.012,0,0,0,1.191-1.589l9.178-16.772L401.839,457.325a39.236,39.236,0,0,0,55.487-55.488L306.548,251.059l13.373-13.373a7,7,0,0,0,0-9.9l-3.038-3.038,90.7-90.7L430.56,125.9a7,7,0,0,0,3.7-3.063l27.781-47.514a7,7,0,0,0-1.093-8.483L445.164,51.05a7,7,0,0,0-8.483-1.093L389.167,77.738a7,7,0,0,0-3.063,3.7l-8.153,22.977-90.7,90.7-3.038-3.038a7,7,0,0,0-9.9,0L260.94,205.452,234.393,178.9A99.138,99.138,0,0,0,110.807,48.291a7,7,0,0,0-2.733,11.589l34.7,34.7L134.8,134.313,93.4,141.63,59.957,107.953a7.011,7.011,0,0,0-11.616,2.7A99.139,99.139,0,0,0,178.906,234.392Zm76.468,69.464c-.008.016-.017.031-.025.046l-13.116,23.966L129.11,440.991a27.376,27.376,0,0,1-38.672,0L71.009,421.562a27.378,27.378,0,0,1,0-38.672L184.132,269.767,208.1,256.65l.041-.022,21.6-11.821,37.451,37.451ZM308.893,273.2,447.427,411.737a25.236,25.236,0,0,1-35.689,35.688L270.214,305.9l7.723-14.111a20.681,20.681,0,0,0,6.3,2.2L394.8,404.553a7,7,0,1,0,9.9-9.9L300.315,290.271a21.129,21.129,0,0,0,2.45-2.073,20.817,20.817,0,0,0,6.137-14.816C308.9,273.322,308.894,273.263,308.893,273.2Zm80.075-160a7.011,7.011,0,0,0,1.648-2.609l7.826-22.057L439.084,64.77l8.146,8.146-23.763,40.642-22.057,7.826a7.011,7.011,0,0,0-2.609,1.648l-91.817,91.817-9.833-9.833Zm-109.7,93.729,25.808,25.808-10.93,10.931-25.809-25.809Zm13.6,61.537a6.953,6.953,0,1,1-9.833,9.833l-49.33-49.33a6.953,6.953,0,1,1,9.833-9.833ZM58.631,126.484l27.42,27.609a7,7,0,0,0,6.185,1.96l49.71-8.785a7,7,0,0,0,5.645-5.517l9.645-48.095a7,7,0,0,0-1.913-6.326L126.6,58.61a84.625,84.625,0,0,1,75.857,23.5,85.484,85.484,0,0,1,17.272,95.5,7,7,0,0,0,1.419,7.855L238.8,203.107c-.059,0-.118-.009-.178-.009a20.817,20.817,0,0,0-14.816,6.137,21.244,21.244,0,0,0-2.073,2.45l-7.244-7.244a7,7,0,0,0-9.9,9.9l13.421,13.42a20.692,20.692,0,0,0,2.2,6.3L206.1,241.786,185.463,221.15a7,7,0,0,0-7.855-1.419,85.484,85.484,0,0,1-95.5-17.273A84.591,84.591,0,0,1,58.631,126.484Z"/></svg>
