<?xml version="1.0" encoding="UTF-8" standalone="no"?>
<svg
   xmlns:dc="http://purl.org/dc/elements/1.1/"
   xmlns:cc="http://creativecommons.org/ns#"
   xmlns:rdf="http://www.w3.org/1999/02/22-rdf-syntax-ns#"
   xmlns:svg="http://www.w3.org/2000/svg"
   xmlns="http://www.w3.org/2000/svg"
   id="svg3803"
   version="1.1"
   viewBox="0 0 112.55 32.83">
  <metadata
     id="metadata3807">
    <rdf:RDF>
      <cc:Work
         rdf:about="">
        <dc:format>image/svg+xml</dc:format>
        <dc:type
           rdf:resource="http://purl.org/dc/dcmitype/StillImage" />
        <dc:title>Payme1</dc:title>
      </cc:Work>
    </rdf:RDF>
  </metadata>
  <defs
     id="defs3790">
    <style
       id="style3788">.cls-1{fill:#2c2929}.cls-2{fill:#4cb6ac}</style>
  </defs>
  <title
     id="title3792">Payme1</title>
  <g
     data-name="Layer 2"
     id="Layer_2">
    <g
       data-name="Layer 1"
       id="Layer_1-2">
      <g
         id="Symbols">
        <g
           id="Footer">
          <g
             id="Payment">
            <g
               id="Payme">
              <path
                 d="M32.26 20.52s-.88 1.88-4.1 1.88a3.67 3.67 0 0 1-2.16-.57 2.17 2.17 0 0 1-.83-1.88 2.35 2.35 0 0 1 1.35-2.3A9.54 9.54 0 0 1 30.6 17c1.35.05 1.71.89 1.71 1.47-.05.16-.05 2.09-.05 2.09M37 9.95a4.33 4.33 0 0 0-.73-1.15 3.83 3.83 0 0 0-1-.84c-.42-.26-.83-.47-1.25-.68a8.94 8.94 0 0 0-1.4-.42A7.51 7.51 0 0 0 31 6.65c-.57-.05-1.25-.05-2-.05-4.83 0-7.64 1.52-8.31 4.61a.77.77 0 0 0 .73 1h3c.78 0 .73-.26 1.14-.94a2.25 2.25 0 0 1 .73-1 4.41 4.41 0 0 1 2.6-.68 3.64 3.64 0 0 1 2.39.63 2.83 2.83 0 0 1 .88 1.94c0 1-.31 1.68-1.56 1.68-2.91 0-6.13.31-7.9 1.36a5.88 5.88 0 0 0-2.8 5.24 5.6 5.6 0 0 0 .47 2.36 5.17 5.17 0 0 0 1.3 1.68 5.26 5.26 0 0 0 2 1 9.69 9.69 0 0 0 2.55.31 11.32 11.32 0 0 0 3.43-.47 11.17 11.17 0 0 0 2.7-1.57v.58c0 .58.16 1 .83 1h3.48c.73 0 .88-.52.88-1.15V13.46a11.45 11.45 0 0 0-.16-2A5.06 5.06 0 0 0 37 9.95m4.83 18.59a4.43 4.43 0 0 1-.83-.05c-.36-.05-1 0-1 .58v2.51c0 .94.47 1 .68 1a10 10 0 0 0 2.29.21 6.16 6.16 0 0 0 2.65-.58 6.89 6.89 0 0 0 2-1.52 10.72 10.72 0 0 0 1.51-2.36 32 32 0 0 0 1.3-3s.16-.47.47-1.31c-.83.89-5 4.87-9 4.45M55.95 7h-3.22a1.28 1.28 0 0 0-1.35 1l-3.64 10.22S44.47 8.9 44.26 8.17A1.49 1.49 0 0 0 42.8 7h-3a.86.86 0 0 0-.93 1.15c.1.26 4.16 11.36 5.66 15.6a5.81 5.81 0 0 1 .52 1.68 4.31 4.31 0 0 1-.58 1.57 2.32 2.32 0 0 1-.42.58c3-.89 6.49-4.19 8.26-7.75 1.77-5 4.1-11.52 4.21-11.83.26-.52.26-.94-.57-.94M5.35 21.31A14.37 14.37 0 0 1 0 17.91v6.44a.91.91 0 0 0 .93 1h3.59c1 0 .88-1 .88-1s-.05-1.47-.05-3m8.21-11.2a3.15 3.15 0 0 1-1.19 1.15 4.63 4.63 0 0 1-1.77.47c-.68.05-1.35.1-2 .1H6.29c-.57 0-.93-.47-.93-1.15V5.18a.82.82 0 0 1 .88-.89h2.33c.78 0 1.45 0 2.13.05a7.89 7.89 0 0 1 1.77.47 2.58 2.58 0 0 1 1.14 1.1A4.28 4.28 0 0 1 14 8a4.24 4.24 0 0 1-.47 2.15m4.78-6.86a5.64 5.64 0 0 0-1.51-1.62 7.78 7.78 0 0 0-2-1A10.7 10.7 0 0 0 12.47.1C11.64.05 10.7 0 9.72 0H1.51A1.39 1.39 0 0 0 0 1.41v13.35a12.59 12.59 0 0 0 5.35 5.71V17.8a1.54 1.54 0 0 1 1.45-1.73h2.45c3.32 0 5.87-.68 7.64-2.09a7.57 7.57 0 0 0 2.64-6.28 11.28 11.28 0 0 0-.26-2.36 8.35 8.35 0 0 0-.93-2.09"
                 class="cls-1"
                 id="Fill-1" />
              <path
                 d="M104.39 17.36h-10c.05 2.67 1.35 4.08 3.58 4.08a3.12 3.12 0 0 0 2.91-1.78 1 1 0 0 1 .93-.47h2.54a.54.54 0 0 1 .52.63 7 7 0 0 1-7 4.61c-4.67 0-7.79-3.19-7.79-8.06s3.22-8.22 7.64-8.22 7.32 3.09 7.53 8c0 .63-.16 1.2-.94 1.2zm-17.3 7.23H84c-.83 0-.73-.73-.73-.94v-9.27a4.14 4.14 0 0 0-.47-2.25 1.58 1.58 0 0 0-1.45-.68c-1.66 0-2.75 1.73-3.32 2.41v9.84c0 .26.05.89-.88.89h-3c-.83 0-.73-.73-.73-.94v-9.27a4.22 4.22 0 0 0-.42-2.26 1.45 1.45 0 0 0-1.4-.68c-1.77 0-2.8 1.73-3.32 2.41v9.85c0 .26.05.89-.88.89h-3.06c-.83 0-.73-.73-.73-.94v-6.08c0-4 4.88-7.85 5.14-8.12A6.51 6.51 0 0 1 72.91 8a5.52 5.52 0 0 1 3 .68 4 4 0 0 1 1.71 2.15A10.89 10.89 0 0 1 80 8.72 5.56 5.56 0 0 1 82.73 8C86.21 8 88 10 88 14v9.7c0 .26.1.89-.88.89zM63.61 9.4c0-.63.05-1 .73-1h3c.78 0 .83.47.83.94v.1a12.44 12.44 0 0 0-4.52 3.87zm48.31 4.76c-.62-.89-5-6.39-6.34-7.91-1.77-1.73-3.22-2.62-4.93-2.62h-36c-3.27 0-4.36 1.1-4.36 4.87v14.93c0 3.66.26 5.29 5 5.29h35.32c1.71 0 3.43-1.36 4.67-2.67 1.45-1.52 6-6.28 6.7-7.54a4.2 4.2 0 0 0-.05-4.35z"
                 class="cls-2"
                 id="Fill-3" />
              <path
                 d="M97.34 10.93c-1.87 0-3.17 1.31-3.38 3.46h6.7c-.21-1.88-1.25-3.46-3.32-3.46"
                 class="cls-2"
                 id="Fill-5" />
            </g>
          </g>
        </g>
      </g>
    </g>
  </g>
</svg>
