<svg id="outline-shopping_cart-24px" xmlns="http://www.w3.org/2000/svg" width="33.371" height="33.371" viewBox="0 0 33.371 33.371">
  <g id="Bounding_Boxes">
    <path id="Path_2478" data-name="Path 2478" d="M0,0H33.371V33.371H0Z" fill="none"/>
  </g>
  <g id="Outline" transform="translate(1.39 2.781)">
    <g id="Group_103" data-name="Group 103">
      <path id="Path_2479" data-name="Path 2479" d="M21.231,17.3a2.768,2.768,0,0,0,2.433-1.432l4.978-9.024a1.385,1.385,0,0,0-1.21-2.058H6.854L5.547,2H1V4.781H3.781L8.787,15.335,6.909,18.727a2.786,2.786,0,0,0,2.433,4.13H26.028V20.076H9.343l1.53-2.781ZM8.175,7.562H25.069l-3.838,6.952H11.47Z" transform="translate(-1 -2)" fill="#d8d8d8"/>
      <path id="Path_2480" data-name="Path 2480" d="M7.777,18a2.781,2.781,0,1,0,2.781,2.781A2.777,2.777,0,0,0,7.777,18Z" transform="translate(0.566 4.247)" fill="#d8d8d8"/>
      <path id="Path_2481" data-name="Path 2481" d="M17.777,18a2.781,2.781,0,1,0,2.781,2.781A2.777,2.777,0,0,0,17.777,18Z" transform="translate(4.47 4.247)" fill="#d8d8d8"/>
    </g>
  </g>
</svg>
