<svg xmlns="http://www.w3.org/2000/svg" width="127" height="127" viewBox="0 0 127 127">
  <g id="Group_216" data-name="Group 216" transform="translate(-1454 -4673)">
    <circle id="Ellipse_10" data-name="Ellipse 10" cx="63.5" cy="63.5" r="63.5" transform="translate(1454 4673)" fill="#4abdff"/>
    <path id="audit" d="M43.039,5.236H33.167a7.854,7.854,0,0,0-14.81,0h-10A7.862,7.862,0,0,0,.5,13.089V59.162a7.862,7.862,0,0,0,7.853,7.853H43.047a7.864,7.864,0,0,0,7.845-7.853V13.089a7.862,7.862,0,0,0-7.853-7.853Zm-19.9,5.236V7.853a2.618,2.618,0,0,1,5.236,0v2.618h5.236v5.1H17.908v-5.1ZM45.657,59.162a2.621,2.621,0,0,1-2.612,2.618H8.353a2.621,2.621,0,0,1-2.618-2.618V13.089a2.621,2.621,0,0,1,2.618-2.618h4.319v10.34H38.851V10.471h4.188a2.621,2.621,0,0,1,2.618,2.618ZM35.736,30.11l3.872,3.524L22.843,52.056,11.769,41.345l3.64-3.763L22.6,44.54Zm0,0" transform="translate(1491.5 4702.984)" fill="#fff"/>
  </g>
</svg>
