<svg xmlns="http://www.w3.org/2000/svg" width="127" height="127" viewBox="0 0 127 127">
  <g id="Group_215" data-name="Group 215" transform="translate(-1009 -4673)">
    <circle id="Ellipse_9" data-name="Ellipse 9" cx="63.5" cy="63.5" r="63.5" transform="translate(1009 4673)" fill="#4abdff"/>
    <g id="chat" transform="translate(1031 4699.009)">
      <path id="Path_3718" data-name="Path 3718" d="M247.63,100a1.63,1.63,0,1,0,1.63,1.63A1.631,1.631,0,0,0,247.63,100Zm0,0" transform="translate(-205.896 -83.698)" fill="#fff"/>
      <path id="Path_3719" data-name="Path 3719" d="M81.63,263.26A1.63,1.63,0,1,0,80,261.63,1.631,1.631,0,0,0,81.63,263.26Zm0,0" transform="translate(-66.958 -217.614)" fill="#fff"/>
      <path id="Path_3720" data-name="Path 3720" d="M54.776,0C40.1,0,28.054,10.119,27.122,22.865,13.145,23.566,0,33.645,0,47.277A22.78,22.78,0,0,0,6.358,62.867a9.915,9.915,0,0,1-2.62,9.341,1.63,1.63,0,0,0,1.153,2.783A17.983,17.983,0,0,0,17.35,69.955a37.15,37.15,0,0,0,11.342,1.775c14.675,0,26.719-10.116,27.654-22.86a36.659,36.659,0,0,0,9.773-1.739,17.983,17.983,0,0,0,12.459,5.036,1.63,1.63,0,0,0,1.153-2.783,9.915,9.915,0,0,1-2.62-9.341,22.78,22.78,0,0,0,6.358-15.591C83.469,10.289,69.312,0,54.776,0ZM28.692,68.47a32.956,32.956,0,0,1-11.169-1.924,1.63,1.63,0,0,0-1.806.414A14.71,14.71,0,0,1,8.4,71.3a13.184,13.184,0,0,0,.994-9.7A1.627,1.627,0,0,0,9,60.91,19.591,19.591,0,0,1,3.261,47.277c0-11.488,11.646-21.193,25.432-21.193,13.018,0,24.454,9.052,24.454,21.193,0,11.686-10.97,21.193-24.454,21.193Zm45.78-30.384a1.635,1.635,0,0,0-.4.689,13.184,13.184,0,0,0,.994,9.7,14.705,14.705,0,0,1-7.316-4.342,1.631,1.631,0,0,0-1.806-.414,32.115,32.115,0,0,1-9.6,1.883,23.335,23.335,0,0,0-8.809-16.262H68.8a1.63,1.63,0,1,0,0-3.26H42.523a30.4,30.4,0,0,0-12.133-3.213C31.328,11.922,41.907,3.26,54.776,3.26c13.786,0,25.432,9.705,25.432,21.193a19.591,19.591,0,0,1-5.736,13.633Zm0,0" fill="#fff"/>
      <path id="Path_3721" data-name="Path 3721" d="M142.171,260H121.63a1.63,1.63,0,0,0,0,3.26h20.541a1.63,1.63,0,1,0,0-3.26Zm0,0" transform="translate(-100.437 -217.614)" fill="#fff"/>
      <path id="Path_3722" data-name="Path 3722" d="M108.692,320H81.63a1.63,1.63,0,0,0,0,3.26h27.062a1.63,1.63,0,1,0,0-3.26Zm0,0" transform="translate(-66.958 -267.832)" fill="#fff"/>
      <path id="Path_3723" data-name="Path 3723" d="M308.171,100H287.63a1.63,1.63,0,0,0,0,3.261h20.541a1.63,1.63,0,0,0,0-3.261Zm0,0" transform="translate(-239.375 -83.698)" fill="#fff"/>
    </g>
  </g>
</svg>
