<svg xmlns="http://www.w3.org/2000/svg" width="127" height="127" viewBox="0 0 127 127">
  <g id="Group_213" data-name="Group 213" transform="translate(-105 -4673)">
    <circle id="Ellipse_7" data-name="Ellipse 7" cx="63.5" cy="63.5" r="63.5" transform="translate(105 4673)" fill="#4abdff"/>
    <g id="truck" transform="translate(128 4617.765)">
      <g id="Group_202" data-name="Group 202" transform="translate(0 94.062)">
        <g id="Group_201" data-name="Group 201" transform="translate(0 0)">
          <path id="Path_3709" data-name="Path 3709" d="M75.11,115.72l-2.091-8.366a1.265,1.265,0,0,0,1-1.237v-1.349a5.317,5.317,0,0,0-5.311-5.311H59.182V96.675a2.616,2.616,0,0,0-2.613-2.613H8.009A2.616,2.616,0,0,0,5.4,96.675v22.931a1.265,1.265,0,1,0,2.529,0V96.675a.084.084,0,0,1,.084-.084H56.568a.084.084,0,0,1,.084.084v22.931a1.265,1.265,0,1,0,2.529,0v-1.434H74.106a4.138,4.138,0,0,1,3.93,2.866H74.1a1.265,1.265,0,0,0-1.265,1.265V125a3.967,3.967,0,0,0,3.962,3.962h1.433v5.564H74.928a8.006,8.006,0,0,0-15.138,0h-.609V125a1.265,1.265,0,0,0-2.529,0v9.526H30.415a8.006,8.006,0,0,0-15.138,0H8.009a.084.084,0,0,1-.084-.084v-2.782H13.4a1.265,1.265,0,1,0,0-2.529H1.265a1.265,1.265,0,1,0,0,2.529H5.4v2.782a2.616,2.616,0,0,0,2.613,2.613H14.84c0,.028,0,.056,0,.084a8.009,8.009,0,0,0,16.018,0c0-.028,0-.056,0-.084h28.5c0,.028,0,.056,0,.084a8.009,8.009,0,0,0,16.018,0c0-.028,0-.056,0-.084H79.5a1.265,1.265,0,0,0,1.265-1.265V122.3A6.67,6.67,0,0,0,75.11,115.72ZM59.182,101.987h9.526a2.785,2.785,0,0,1,2.782,2.782v.084H59.182Zm0,13.657v-8.262H70.419l2.065,8.262ZM22.847,142.621a5.48,5.48,0,1,1,5.48-5.48A5.486,5.486,0,0,1,22.847,142.621Zm44.513,0a5.48,5.48,0,1,1,5.48-5.48A5.486,5.486,0,0,1,67.359,142.621Zm10.875-16.186H76.8A1.435,1.435,0,0,1,75.368,125v-1.433h2.866v2.866Z" transform="translate(0 -94.062)" fill="#fff"/>
        </g>
      </g>
      <g id="Group_204" data-name="Group 204" transform="translate(20.233 134.528)">
        <g id="Group_203" data-name="Group 203" transform="translate(0 0)">
          <path id="Path_3710" data-name="Path 3710" d="M130.88,350.6a2.613,2.613,0,1,0,2.613,2.613A2.616,2.616,0,0,0,130.88,350.6Z" transform="translate(-128.267 -350.597)" fill="#fff"/>
        </g>
      </g>
      <g id="Group_206" data-name="Group 206" transform="translate(64.746 134.528)">
        <g id="Group_205" data-name="Group 205" transform="translate(0 0)">
          <path id="Path_3711" data-name="Path 3711" d="M413.068,350.6a2.613,2.613,0,1,0,2.613,2.613A2.616,2.616,0,0,0,413.068,350.6Z" transform="translate(-410.455 -350.597)" fill="#fff"/>
        </g>
      </g>
      <g id="Group_208" data-name="Group 208" transform="translate(32.373 129.133)">
        <g id="Group_207" data-name="Group 207" transform="translate(0 0)">
          <path id="Path_3712" data-name="Path 3712" d="M225.376,316.393H206.492a1.265,1.265,0,0,0,0,2.529h18.884a1.265,1.265,0,1,0,0-2.529Z" transform="translate(-205.227 -316.393)" fill="#fff"/>
        </g>
      </g>
      <g id="Group_210" data-name="Group 210" transform="translate(2.698 123.737)">
        <g id="Group_209" data-name="Group 209">
          <path id="Path_3713" data-name="Path 3713" d="M34.553,282.188H18.367a1.265,1.265,0,0,0,0,2.529H34.553a1.265,1.265,0,0,0,0-2.529Z" transform="translate(-17.102 -282.188)" fill="#fff"/>
        </g>
      </g>
      <g id="Group_212" data-name="Group 212" transform="translate(22.931 106.202)">
        <g id="Group_211" data-name="Group 211" transform="translate(0 0)">
          <path id="Path_3714" data-name="Path 3714" d="M166.413,171.393a1.265,1.265,0,0,0-1.788,0l-11.246,11.246-5.85-5.85a1.265,1.265,0,0,0-1.788,1.788l6.744,6.744a1.264,1.264,0,0,0,1.788,0l12.14-12.14A1.265,1.265,0,0,0,166.413,171.393Z" transform="translate(-145.37 -171.023)" fill="#fff"/>
        </g>
      </g>
    </g>
  </g>
</svg>
