<svg xmlns="http://www.w3.org/2000/svg" width="127" height="127" viewBox="0 0 127 127">
  <g id="Group_214" data-name="Group 214" transform="translate(-548 -4673)">
    <circle id="Ellipse_8" data-name="Ellipse 8" cx="63.5" cy="63.5" r="63.5" transform="translate(548 4673)" fill="#4abdff"/>
    <g id="surface1" transform="translate(579.492 4699.269)">
      <path id="Path_3715" data-name="Path 3715" d="M64.26,20.5l0-.059c-.033-.726-.055-1.494-.068-2.348a8.007,8.007,0,0,0-7.539-7.844C47.964,9.762,41.245,6.93,35.5,1.334l-.049-.047a4.835,4.835,0,0,0-6.571,0l-.049.047c-5.742,5.6-12.461,8.429-21.148,8.914A8.007,8.007,0,0,0,.147,18.092c-.013.848-.035,1.616-.068,2.347l0,.136C-.093,29.433-.3,40.457,3.385,50.462a38.045,38.045,0,0,0,9.127,14.217A47.746,47.746,0,0,0,30.374,75.244a5.532,5.532,0,0,0,.732.2,5.407,5.407,0,0,0,2.126,0,5.548,5.548,0,0,0,.735-.2A47.778,47.778,0,0,0,51.809,64.672a38.1,38.1,0,0,0,9.127-14.22C64.638,40.416,64.429,29.372,64.26,20.5ZM56.777,48.918C52.887,59.464,44.947,66.707,32.5,71.058a1.113,1.113,0,0,1-.141.038,1,1,0,0,1-.39,0,1.1,1.1,0,0,1-.14-.037C19.377,66.715,11.431,59.476,7.545,48.93c-3.4-9.223-3.207-19.342-3.036-28.27v-.05c.035-.767.058-1.571.07-2.454a3.559,3.559,0,0,1,3.354-3.483,38.9,38.9,0,0,0,13.2-2.9A34.54,34.54,0,0,0,31.894,4.542a.409.409,0,0,1,.549,0A34.553,34.553,0,0,0,43.2,11.77a38.9,38.9,0,0,0,13.2,2.9,3.558,3.558,0,0,1,3.354,3.484c.013.888.036,1.691.071,2.453C60,29.548,60.186,39.676,56.777,48.918Zm0,0" transform="translate(0)" fill="#fff"/>
      <path id="Path_3716" data-name="Path 3716" d="M109.227,128.41a18.828,18.828,0,1,0,18.828,18.828A18.85,18.85,0,0,0,109.227,128.41Zm0,33.223a14.4,14.4,0,1,1,14.394-14.4A14.411,14.411,0,0,1,109.227,161.633Zm0,0" transform="translate(-77.059 -109.463)" fill="#fff"/>
      <path id="Path_3717" data-name="Path 3717" d="M168.575,212.641l-8.745,8.745-2.374-2.374a2.217,2.217,0,0,0-3.135,3.134l3.941,3.941a2.217,2.217,0,0,0,3.134,0l10.313-10.313a2.217,2.217,0,1,0-3.135-3.134Zm0,0" transform="translate(-130.997 -180.711)" fill="#fff"/>
    </g>
  </g>
</svg>
