<svg xmlns="http://www.w3.org/2000/svg" width="390.401" height="48.432" viewBox="0 0 390.401 48.432">
  <g id="Group_230" data-name="Group 230" transform="translate(-591 -9297.999)">
    <g id="_011-youtube" data-name="011-youtube" transform="translate(591 9298.065)">
      <path id="Path_3724" data-name="Path 3724" d="M54.193,0H9.3A9.312,9.312,0,0,0,0,9.3V39.064a9.312,9.312,0,0,0,9.3,9.3H54.193a9.312,9.312,0,0,0,9.3-9.3V9.3A9.312,9.312,0,0,0,54.193,0ZM22.446,37.008V11.721L44.83,24.155Zm0,0" fill="#fff"/>
      <path id="Path_3725" data-name="Path 3725" d="M211,145.488v12.538l11.1-6.371Zm0,0" transform="translate(-184.833 -127.446)" fill="#fff"/>
    </g>
    <g id="_025-instagram" data-name="025-instagram" transform="translate(685.882 9298.001)">
      <path id="Path_3726" data-name="Path 3726" d="M41.335,0H7.094A7.1,7.1,0,0,0,0,7.094V41.335a7.1,7.1,0,0,0,7.094,7.094H41.335a7.1,7.1,0,0,0,7.094-7.094V7.094A7.1,7.1,0,0,0,41.335,0ZM24.309,36.89A12.769,12.769,0,1,1,37.079,24.12,12.784,12.784,0,0,1,24.309,36.89ZM38.5,14.188a4.256,4.256,0,1,1,4.257-4.256A4.261,4.261,0,0,1,38.5,14.188Zm0,0" fill="#fff"/>
      <path id="Path_3727" data-name="Path 3727" d="M393.419,90a1.419,1.419,0,1,0,1.419,1.419A1.42,1.42,0,0,0,393.419,90Zm0,0" transform="translate(-354.921 -81.487)" fill="#fff"/>
      <path id="Path_3728" data-name="Path 3728" d="M161.932,150a9.932,9.932,0,1,0,9.932,9.932A9.944,9.944,0,0,0,161.932,150Zm0,0" transform="translate(-137.622 -135.812)" fill="#fff"/>
    </g>
    <path id="_029-telegram" data-name="029-telegram" d="M13.241,28.024l6.844,17.109L29,36.223,44.272,48.366,55.029,0,0,22.922ZM39.3,13.877,22.461,29.24l-2.1,7.907-3.876-9.691Zm0,0" transform="translate(765.938 9298.064)" fill="#fff"/>
    <path id="_035-whatsapp" data-name="035-whatsapp" d="M24.215,0A24.309,24.309,0,0,0,0,24.215a24.053,24.053,0,0,0,3.428,12.4L0,48.429,11.814,45a24.053,24.053,0,0,0,12.4,3.428A24.215,24.215,0,1,0,24.215,0ZM39.354,34.446l-1.127,1.127c-1.594,1.594-5.26,1.468-7.615,1.013C22.78,35.073,13.649,26.222,11.888,18.557c-.872-3.8-.391-7.1.869-8.357l1.127-1.127a1.6,1.6,0,0,1,2.253,0l4.507,4.507a1.594,1.594,0,0,1,0,2.252L19.517,16.96a3.193,3.193,0,0,0,0,4.507l7.443,7.345a3.185,3.185,0,0,0,4.507,0l1.127-1.126a1.665,1.665,0,0,1,2.254,0l4.506,4.506a1.592,1.592,0,0,1,0,2.254Zm0,0" transform="translate(852.915 9298.001)" fill="#fff"/>
    <path id="_038-github" data-name="038-github" d="M24.215,0A24.31,24.31,0,0,0,0,24.215c0,11.35,7.964,21.66,18.54,24.215V40.419A5.831,5.831,0,0,1,12,37.511c-.55-.928-1.525-1.935-2.542-1.861l-.249-2.827c2.2-.188,4.1,1.34,5.232,3.238a3.138,3.138,0,0,0,1.821,1.557,3.814,3.814,0,0,0,2.382-.207A6.651,6.651,0,0,1,20.315,34h0c-6.307-.941-8.821-4.287-9.819-6.928a11.111,11.111,0,0,1,1.725-10.657.38.38,0,0,0,.1-.294,9.289,9.289,0,0,1,.282-6.2c1.237.366,1.438-.368,5.374,2.023l.68.409c.285.17.2.073.48.051a20.55,20.55,0,0,1,5.082-.715,20.639,20.639,0,0,1,5.152.733l.22.022c-.019,0,.06-.014.193-.093,4.916-2.978,4.74-2,6.058-2.433a9.447,9.447,0,0,1,.276,6.2c-.143.44,4.262,4.474,1.821,10.949-1,2.642-3.511,5.988-9.818,6.929h0c.808,1.232,1.78,1.888,1.775,4.43v10c10.576-2.555,18.54-12.865,18.54-24.215A24.309,24.309,0,0,0,24.215,0Zm0,0" transform="translate(932.971 9297.999)" fill="#fff"/>
  </g>
</svg>
