<svg xmlns="http://www.w3.org/2000/svg" xmlns:xlink="http://www.w3.org/1999/xlink" width="106" height="106" viewBox="0 0 106 106">
  <defs>
    <linearGradient id="linear-gradient" x1="0.571" y1="1.41" x2="0.55" gradientUnits="objectBoundingBox">
      <stop offset="0" stop-color="#0019ff"/>
      <stop offset="1" stop-color="#09ff8c"/>
    </linearGradient>
  </defs>
  <g id="Group_182" data-name="Group 182" transform="translate(-211 -1141)">
    <g id="robot" transform="translate(234 1164.413)">
      <path id="Path_3694" data-name="Path 3694" d="M1.037,24.753H6.789a15.42,15.42,0,0,0,1.461,3.513l-4.071,4.07a1.037,1.037,0,0,0,0,1.467l4.4,4.4a1.038,1.038,0,0,0,1.466,0l4.072-4.072a15.41,15.41,0,0,0,3.512,1.46v5.752a1.037,1.037,0,0,0,1.037,1.037h6.221a1.037,1.037,0,0,0,1.037-1.037V35.591a15.41,15.41,0,0,0,3.512-1.46L33.5,38.2a1.067,1.067,0,0,0,1.466,0l4.4-4.4a1.037,1.037,0,0,0,0-1.467L35.3,28.266a15.42,15.42,0,0,0,1.46-3.513h5.752a1.037,1.037,0,0,0,1.037-1.037V17.5a1.037,1.037,0,0,0-1.037-1.037H36.759a15.425,15.425,0,0,0-1.46-3.513l4.071-4.07a1.037,1.037,0,0,0,0-1.467l-4.4-4.4a1.037,1.037,0,0,0-1.466,0L29.433,7.081a15.454,15.454,0,0,0-3.512-1.46V-.131a1.037,1.037,0,0,0-1.037-1.037H18.663A1.037,1.037,0,0,0,17.626-.131V5.621a15.454,15.454,0,0,0-3.512,1.46L10.043,3.009a1.067,1.067,0,0,0-1.466,0l-4.4,4.4a1.037,1.037,0,0,0,0,1.467l4.072,4.07a15.424,15.424,0,0,0-1.461,3.513H1.037A1.037,1.037,0,0,0,0,17.5v6.221a1.037,1.037,0,0,0,1.037,1.037Zm1.037-6.221H7.6a1.037,1.037,0,0,0,1.013-.815,13.34,13.34,0,0,1,1.817-4.369,1.037,1.037,0,0,0-.14-1.293L6.377,8.142,9.31,5.209l3.912,3.913a1.037,1.037,0,0,0,1.294.141,13.361,13.361,0,0,1,4.369-1.817A1.038,1.038,0,0,0,19.7,6.432V.906h4.147V6.432a1.038,1.038,0,0,0,.815,1.013,13.361,13.361,0,0,1,4.369,1.817,1.037,1.037,0,0,0,1.294-.141l3.912-3.913L37.17,8.142l-3.912,3.912a1.037,1.037,0,0,0-.14,1.294,13.336,13.336,0,0,1,1.815,4.37,1.038,1.038,0,0,0,1.013.815h5.528v4.147H35.946a1.037,1.037,0,0,0-1.013.815,13.324,13.324,0,0,1-1.815,4.368,1.038,1.038,0,0,0,.14,1.293l3.913,3.912L34.238,36,30.326,32.09a1.038,1.038,0,0,0-1.294-.14,13.33,13.33,0,0,1-4.368,1.817,1.037,1.037,0,0,0-.816,1.013v5.527H19.7V34.78a1.037,1.037,0,0,0-.816-1.013,13.33,13.33,0,0,1-4.368-1.817,1.038,1.038,0,0,0-1.294.14L9.31,36,6.377,33.07l3.912-3.912a1.037,1.037,0,0,0,.14-1.294,13.344,13.344,0,0,1-1.817-4.37A1.036,1.036,0,0,0,7.6,22.68H2.074Zm0,0" transform="translate(0 0)" fill="url(#linear-gradient)"/>
      <path id="Path_3695" data-name="Path 3695" d="M138.295,145.422A8.295,8.295,0,1,0,130,137.127,8.294,8.294,0,0,0,138.295,145.422Zm0-14.516a6.221,6.221,0,1,1-6.221,6.221A6.222,6.222,0,0,1,138.295,130.906Zm0,0" transform="translate(-116.521 -116.521)" fill="url(#linear-gradient)"/>
      <path id="Path_3696" data-name="Path 3696" d="M111.405,121.643A11.405,11.405,0,1,0,100,110.237,11.405,11.405,0,0,0,111.405,121.643Zm0-20.737a9.332,9.332,0,1,1-9.332,9.332A9.331,9.331,0,0,1,111.405,100.906Zm0,0" transform="translate(-89.632 -89.631)" fill="url(#linear-gradient)"/>
      <path id="Path_3697" data-name="Path 3697" d="M59.1,297.5V289.2a1.037,1.037,0,0,0-1.037-1.037H55.99v-8.295a1.037,1.037,0,0,0-1.037-1.037H45.622a1.037,1.037,0,0,0-1.037,1.037v8.295H39.4a1.037,1.037,0,0,0-1.037,1.037V297.5H5.184A5.191,5.191,0,0,0,0,302.68v2.074a5.19,5.19,0,0,0,5.184,5.184H59.1a5.19,5.19,0,0,0,5.184-5.184V302.68A5.191,5.191,0,0,0,59.1,297.5Zm-2.074,0H49.769v-7.258h7.258Zm-10.369-16.59h7.258v7.258H46.658Zm-6.221,9.332H47.7V297.5H40.437Zm21.774,14.516a3.111,3.111,0,0,1-3.111,3.111H5.184a3.111,3.111,0,0,1-3.111-3.111V302.68a3.111,3.111,0,0,1,3.111-3.111H59.1a3.111,3.111,0,0,1,3.111,3.111Zm0,0" transform="translate(0 -250.968)" fill="url(#linear-gradient)"/>
      <path id="Path_3698" data-name="Path 3698" d="M283.111,488.832a3.111,3.111,0,1,0,3.111,3.111A3.111,3.111,0,0,0,283.111,488.832Zm0,4.147a1.037,1.037,0,1,1,1.037-1.037A1.037,1.037,0,0,1,283.111,492.979Zm0,0" transform="translate(-250.968 -439.194)" fill="url(#linear-gradient)"/>
      <path id="Path_3699" data-name="Path 3699" d="M183.111,488.832a3.111,3.111,0,1,0,3.111,3.111A3.111,3.111,0,0,0,183.111,488.832Zm0,4.147a1.037,1.037,0,1,1,1.037-1.037A1.037,1.037,0,0,1,183.111,492.979Zm0,0" transform="translate(-161.337 -439.194)" fill="url(#linear-gradient)"/>
      <path id="Path_3700" data-name="Path 3700" d="M383.111,488.832a3.111,3.111,0,1,0,3.111,3.111A3.111,3.111,0,0,0,383.111,488.832Zm0,4.147a1.037,1.037,0,1,1,1.037-1.037A1.037,1.037,0,0,1,383.111,492.979Zm0,0" transform="translate(-340.6 -439.194)" fill="url(#linear-gradient)"/>
      <path id="Path_3701" data-name="Path 3701" d="M83.111,488.832a3.111,3.111,0,1,0,3.111,3.111A3.111,3.111,0,0,0,83.111,488.832Zm0,4.147a1.037,1.037,0,1,1,1.037-1.037A1.037,1.037,0,0,1,83.111,492.979Zm0,0" transform="translate(-71.705 -439.194)" fill="url(#linear-gradient)"/>
      <path id="Path_3702" data-name="Path 3702" d="M483.111,488.832a3.111,3.111,0,1,0,3.111,3.111A3.111,3.111,0,0,0,483.111,488.832Zm0,4.147a1.037,1.037,0,1,1,1.037-1.037A1.037,1.037,0,0,1,483.111,492.979Zm0,0" transform="translate(-430.231 -439.194)" fill="url(#linear-gradient)"/>
    </g>
    <g id="Ellipse_1" data-name="Ellipse 1" transform="translate(211 1141)" fill="none" stroke="#00ff90" stroke-width="3">
      <circle cx="53" cy="53" r="53" stroke="none"/>
      <circle cx="53" cy="53" r="51.5" fill="none"/>
    </g>
  </g>
</svg>
