<svg xmlns="http://www.w3.org/2000/svg" xmlns:xlink="http://www.w3.org/1999/xlink" width="106" height="106" viewBox="0 0 106 106">
  <defs>
    <linearGradient id="linear-gradient" x1="0.5" x2="0.5" y2="1" gradientUnits="objectBoundingBox">
      <stop offset="0" stop-color="#09ff8c"/>
      <stop offset="1" stop-color="#0019ff"/>
    </linearGradient>
  </defs>
  <g id="Group_185" data-name="Group 185" transform="translate(-776 -1134)">
    <g id="Ellipse_2" data-name="Ellipse 2" transform="translate(776 1134)" fill="none" stroke="#00ff90" stroke-width="3">
      <circle cx="53" cy="53" r="53" stroke="none"/>
      <circle cx="53" cy="53" r="51.5" fill="none"/>
    </g>
    <g id="hubcap" transform="translate(798 1156.172)">
      <g id="Group_184" data-name="Group 184">
        <g id="Group_183" data-name="Group 183">
          <path id="Path_3703" data-name="Path 3703" d="M84.875,52.964c-2.784,0-5.134,2.889-6.261,7.17a14.032,14.032,0,0,0-6.893-6.893c4.28-1.128,7.17-3.476,7.17-6.261C78.892,43.066,73.2,40,65.928,40s-12.964,3.066-12.964,6.981c0,2.784,2.89,5.133,7.17,6.261a14.032,14.032,0,0,0-6.893,6.893c-1.127-4.281-3.476-7.17-6.261-7.17C43.066,52.964,40,58.658,40,65.928s3.066,12.964,6.981,12.964c2.784,0,5.134-2.889,6.261-7.17a14.032,14.032,0,0,0,6.893,6.893c-4.28,1.128-7.17,3.476-7.17,6.261,0,3.914,5.694,6.981,12.964,6.981s12.964-3.066,12.964-6.981c0-2.784-2.89-5.133-7.17-6.261a14.032,14.032,0,0,0,6.893-6.893c1.127,4.281,3.476,7.17,6.261,7.17,3.914,0,6.981-5.694,6.981-12.964S88.79,52.964,84.875,52.964ZM46.981,76.9c-2.358,0-4.986-4.505-4.986-10.97s2.628-10.97,4.986-10.97,4.986,4.505,4.986,10.97S49.339,76.9,46.981,76.9ZM73.648,56.8l-4.974,4.973a4.955,4.955,0,0,0-1.748-.73v-7.03A11.909,11.909,0,0,1,73.648,56.8ZM68.92,65.928a2.992,2.992,0,1,1-2.992-2.992A3,3,0,0,1,68.92,65.928ZM54.958,46.981c0-2.358,4.505-4.986,10.97-4.986S76.9,44.622,76.9,46.981s-4.505,4.986-10.97,4.986S54.958,49.339,54.958,46.981Zm9.973,7.03v7.031h0a4.947,4.947,0,0,0-1.748.73L58.209,56.8A11.906,11.906,0,0,1,64.932,54.011Zm-8.132,4.2,4.973,4.974a4.948,4.948,0,0,0-.73,1.748h-7.03A11.909,11.909,0,0,1,56.8,58.208Zm-2.788,8.717h7.031a4.955,4.955,0,0,0,.73,1.748L56.8,73.648A11.906,11.906,0,0,1,54.011,66.925Zm4.2,8.131,4.974-4.973a4.955,4.955,0,0,0,1.748.73v7.031A11.909,11.909,0,0,1,58.208,75.057ZM76.9,84.875c0,2.358-4.505,4.986-10.97,4.986s-10.97-2.628-10.97-4.986,4.505-4.986,10.97-4.986S76.9,82.517,76.9,84.875Zm-9.973-7.03V70.813h0a4.947,4.947,0,0,0,1.748-.73l4.973,4.974A11.906,11.906,0,0,1,66.924,77.845Zm8.132-4.2-4.973-4.974a4.947,4.947,0,0,0,.73-1.748h7.031A11.909,11.909,0,0,1,75.057,73.648Zm-4.243-8.717a4.955,4.955,0,0,0-.73-1.748l4.974-4.974a11.906,11.906,0,0,1,2.787,6.722ZM84.875,76.9c-2.358,0-4.986-4.505-4.986-10.97s2.628-10.97,4.986-10.97,4.986,4.505,4.986,10.97S87.234,76.9,84.875,76.9Z" transform="translate(-35.014 -35.014)" fill="url(#linear-gradient)"/>
          <path id="Path_3704" data-name="Path 3704" d="M30.914,0A30.914,30.914,0,1,0,61.828,30.914,30.949,30.949,0,0,0,30.914,0Zm0,59.834a28.92,28.92,0,1,1,28.92-28.92A28.953,28.953,0,0,1,30.914,59.834Z" fill="url(#linear-gradient)"/>
        </g>
      </g>
    </g>
  </g>
</svg>
