<svg id="outline-local_phone-24px" xmlns="http://www.w3.org/2000/svg" width="40.4" height="40.4" viewBox="0 0 40.4 40.4">
  <g id="Bounding_Boxes">
    <path id="Path_3275" data-name="Path 3275" d="M0,0H40.4V40.4H0Z" fill="none"/>
  </g>
  <g id="Outline" transform="translate(5.05 5.05)">
    <path id="Path_3276" data-name="Path 3276" d="M8.959,6.367a20.726,20.726,0,0,0,.757,4.36L7.7,12.746a24.956,24.956,0,0,1-1.279-6.38H8.959M25.556,26.6a21.467,21.467,0,0,0,4.377.757v2.508a25.967,25.967,0,0,1-6.4-1.262l2.02-2M10.575,3H4.683A1.688,1.688,0,0,0,3,4.683,28.614,28.614,0,0,0,31.616,33.3,1.688,1.688,0,0,0,33.3,31.616V25.742a1.688,1.688,0,0,0-1.683-1.683,19.2,19.2,0,0,1-6.009-.959,1.413,1.413,0,0,0-.522-.084,1.724,1.724,0,0,0-1.2.488l-3.7,3.7A25.5,25.5,0,0,1,9.094,16.113l3.7-3.7a1.689,1.689,0,0,0,.421-1.717,19.123,19.123,0,0,1-.959-6.009A1.688,1.688,0,0,0,10.575,3Z" transform="translate(-3 -3)" fill="#ebebeb"/>
  </g>
</svg>
