<svg id="outline-room-24px" xmlns="http://www.w3.org/2000/svg" width="55" height="55" viewBox="0 0 55 55">
  <g id="Bounding_Boxes">
    <path id="Path_2439" data-name="Path 2439" d="M0,0H55V55H0Z" fill="none"/>
  </g>
  <g id="Outline" transform="translate(11.458 4.583)">
    <g id="Group_86" data-name="Group 86">
      <path id="Path_2440" data-name="Path 2440" d="M21.042,2A16.03,16.03,0,0,0,5,18.042C5,30.073,21.042,47.833,21.042,47.833s16.042-17.76,16.042-29.792A16.03,16.03,0,0,0,21.042,2ZM9.583,18.042a11.458,11.458,0,1,1,22.917,0c0,6.6-6.6,16.477-11.458,22.642C16.275,34.565,9.583,24.573,9.583,18.042Z" transform="translate(-5 -2)" fill="#fff"/>
      <circle id="Ellipse_87" data-name="Ellipse 87" cx="5.729" cy="5.729" r="5.729" transform="translate(10.313 10.313)" fill="#fff"/>
    </g>
  </g>
</svg>
