<svg xmlns="http://www.w3.org/2000/svg" width="78.968" height="73.639" viewBox="0 0 78.968 73.639">
  <path id="star" d="M78.761,28.32a4.17,4.17,0,0,0-3.61-2.8L52.356,23.5,43.347,2.977a4.245,4.245,0,0,0-7.723,0L26.615,23.5l-22.8,2.014a4.183,4.183,0,0,0-3.61,2.8A4.019,4.019,0,0,0,1.43,32.662l17.232,14.7L13.582,69.14a4.029,4.029,0,0,0,1.632,4.217,4.285,4.285,0,0,0,4.613.2L39.484,62.119,59.137,73.556a4.291,4.291,0,0,0,4.617-.2,4.029,4.029,0,0,0,1.632-4.217L60.305,47.365l17.232-14.7a4.018,4.018,0,0,0,1.224-4.341ZM39.862,61.9" transform="translate(0 -0.496)" fill="#4abdff"/>
</svg>
