<svg xmlns="http://www.w3.org/2000/svg" width="73" height="74.315" viewBox="0 0 73 74.315">
  <g id="Group_687" data-name="Group 687" transform="translate(-0.195)">
    <g id="Ellipse_10" data-name="Ellipse 10" transform="translate(0.195)" fill="none" stroke="#ff4e00" stroke-width="3">
      <ellipse cx="36.5" cy="37.158" rx="36.5" ry="37.158" stroke="none"/>
      <ellipse cx="36.5" cy="37.158" rx="35" ry="35.658" fill="none"/>
    </g>
    <path id="audit" d="M25.387,3.063H19.611a4.6,4.6,0,0,0-8.664,0H5.094A4.6,4.6,0,0,0,.5,7.657V34.612a4.6,4.6,0,0,0,4.594,4.594h20.3a4.6,4.6,0,0,0,4.59-4.594V7.657a4.6,4.6,0,0,0-4.594-4.594ZM13.747,6.126V4.594a1.531,1.531,0,0,1,3.063,0V6.126h3.063V9.112H10.684V6.126ZM26.918,34.612a1.533,1.533,0,0,1-1.528,1.531H5.094a1.533,1.533,0,0,1-1.531-1.531V7.657A1.533,1.533,0,0,1,5.094,6.126H7.621v6.049H22.936V6.126h2.45a1.533,1.533,0,0,1,1.531,1.531Zm-5.8-17,2.265,2.062L13.571,30.455,7.093,24.188l2.13-2.2,4.209,4.071Zm0,0" transform="translate(21.695 18)" fill="#ff4e00"/>
  </g>
</svg>
