<svg xmlns="http://www.w3.org/2000/svg" width="73" height="73" viewBox="0 0 73 73">
  <g id="Group_795" data-name="Group 795" transform="translate(-606 -1247)">
    <g id="Group_214" data-name="Group 214" transform="translate(606.361 1247)">
      <g id="Ellipse_8" data-name="Ellipse 8" transform="translate(-0.361)" fill="none" stroke="#ff4e00" stroke-width="3">
        <circle cx="36.5" cy="36.5" r="36.5" stroke="none"/>
        <circle cx="36.5" cy="36.5" r="35" fill="none"/>
      </g>
    </g>
    <g id="_2" data-name="2" transform="translate(619 1238)">
      <g id="Group_734" data-name="Group 734" transform="translate(29.839 60.007)">
        <g id="Group_733" data-name="Group 733" transform="translate(0 0)">
          <rect id="Rectangle_348" data-name="Rectangle 348" width="1.105" height="1.105" fill="#0072ce"/>
        </g>
      </g>
      <g id="Group_736" data-name="Group 736" transform="translate(23.208 62.217)">
        <g id="Group_735" data-name="Group 735" transform="translate(0 0)">
          <rect id="Rectangle_349" data-name="Rectangle 349" width="2.21" height="1.105" fill="#0072ce"/>
        </g>
      </g>
      <g id="Group_738" data-name="Group 738" transform="translate(26.523 60.007)">
        <g id="Group_737" data-name="Group 737" transform="translate(0 0)">
          <rect id="Rectangle_350" data-name="Rectangle 350" width="1.105" height="1.105" fill="#0072ce"/>
        </g>
      </g>
      <g id="Group_740" data-name="Group 740" transform="translate(8.822 30.616)">
        <g id="Group_739" data-name="Group 739">
          <path id="Path_3942" data-name="Path 3942" d="M132.709,97.5a5.179,5.179,0,0,0-3.658-1.5l-1.45.008a1.473,1.473,0,0,0-1.462,1.47v1.778l-1.739.858a2.2,2.2,0,0,0-1.936-1.173h-2.941a2.208,2.208,0,0,0-2.205,2.205v.727a12.5,12.5,0,1,0,0,17.659v.727a2.208,2.208,0,0,0,2.205,2.205h2.941a2.2,2.2,0,0,0,1.93-1.162l1.744.85v1.783a1.473,1.473,0,0,0,1.461,1.47l1.45.008h.029a5.146,5.146,0,0,0,5.145-5.146V101.146A5.109,5.109,0,0,0,132.709,97.5Zm-13.92,3.648a.736.736,0,0,1,.735-.735h2.941a.728.728,0,0,1,.624.352l-2.011.992a1.466,1.466,0,0,0-.549.482c-.015.021-.036.037-.049.06a1.439,1.439,0,0,0-.123.277c-.011.032-.031.059-.04.09a1.476,1.476,0,0,0-.057.409v3.218a1.447,1.447,0,0,0,.022.254,12.511,12.511,0,0,0-1.492-2.914Zm1.631,5.815c.009.018.024.031.033.048a1.505,1.505,0,0,0,.162.232c.018.021.032.042.051.061a1.488,1.488,0,0,0,.27.224c.021.013.044.023.065.036a1.467,1.467,0,0,0,.264.118c.032.011.062.021.1.029a1.462,1.462,0,0,0,.369.052h2.941a1.472,1.472,0,0,1,1.47,1.47v2.941a1.472,1.472,0,0,1-1.47,1.47H121.73a1.445,1.445,0,0,0-.368.052c-.033.009-.064.019-.1.03a1.47,1.47,0,0,0-.264.118c-.022.013-.045.022-.066.036a1.463,1.463,0,0,0-.27.224c-.018.019-.033.041-.051.062a1.485,1.485,0,0,0-.162.232c-.01.017-.024.03-.033.048a12.483,12.483,0,0,0,0-7.484Zm-2.963,10.153a11.027,11.027,0,1,1,0-12.822,10.975,10.975,0,0,1,0,12.822Zm5.008,3.881h-2.941a.736.736,0,0,1-.735-.735v-2.485a12.554,12.554,0,0,0,1.492-2.914,1.432,1.432,0,0,0-.022.253v3.255a1.456,1.456,0,0,0,.059.408,1.48,1.48,0,0,0,.767.915l1.994.971A.733.733,0,0,1,122.465,120.994Zm10.291-.727a3.648,3.648,0,0,1-1.084,2.606,3.518,3.518,0,0,1-2.613,1.07l-1.45-.008v-2.243a.735.735,0,0,0-.413-.661l-5.468-2.663v-3.255h2.941a2.943,2.943,0,0,0,2.941-2.941v-2.941a2.943,2.943,0,0,0-2.941-2.941H121.73v-3.218l1.45-.715,1.081-.534h0l2.941-1.451a.737.737,0,0,0,.409-.659V97.478l1.45-.008h.021a3.676,3.676,0,0,1,3.675,3.676Z" transform="translate(-96 -96)" fill="#0072ce"/>
        </g>
      </g>
      <g id="Group_742" data-name="Group 742" transform="translate(0 24)">
        <g id="Group_741" data-name="Group 741">
          <path id="Path_3943" data-name="Path 3943" d="M36.206,58.447a19.849,19.849,0,1,1,0-26.258l1.1-.973a21.319,21.319,0,1,0,0,28.2Z" transform="translate(0 -24)" fill="#0072ce"/>
        </g>
      </g>
      <g id="Group_744" data-name="Group 744" transform="translate(3.859 38.7)">
        <g id="Group_743" data-name="Group 743">
          <path id="Path_3944" data-name="Path 3944" d="M44.7,184.544l-1.352-.576a16.965,16.965,0,0,0-.193,12.768l1.37-.535a15.5,15.5,0,0,1,.175-11.657Z" transform="translate(-42 -183.968)" fill="#0072ce"/>
        </g>
      </g>
      <g id="Group_746" data-name="Group 746" transform="translate(39.697 36.497)">
        <g id="Group_745" data-name="Group 745">
          <path id="Path_3945" data-name="Path 3945" d="M434.205,160a2.205,2.205,0,1,0,2.205,2.205A2.208,2.208,0,0,0,434.205,160Zm0,2.941a.735.735,0,1,1,.735-.735A.736.736,0,0,1,434.205,162.941Z" transform="translate(-432 -160)" fill="#0072ce"/>
        </g>
      </g>
      <g id="Group_748" data-name="Group 748" transform="translate(39.697 49.73)">
        <g id="Group_747" data-name="Group 747">
          <path id="Path_3946" data-name="Path 3946" d="M434.205,304a2.205,2.205,0,1,0,2.205,2.205A2.208,2.208,0,0,0,434.205,304Zm0,2.94a.735.735,0,1,1,.735-.735A.736.736,0,0,1,434.205,306.94Z" transform="translate(-432 -304)" fill="#0072ce"/>
        </g>
      </g>
      <g id="Group_750" data-name="Group 750" transform="translate(41.995 42.325)">
        <g id="Group_749" data-name="Group 749" transform="translate(0 0)">
          <rect id="Rectangle_351" data-name="Rectangle 351" width="1.105" height="1.105" transform="translate(0)" fill="#0072ce"/>
        </g>
      </g>
      <g id="Group_752" data-name="Group 752" transform="translate(41.995 46.745)">
        <g id="Group_751" data-name="Group 751" transform="translate(0 0)">
          <rect id="Rectangle_352" data-name="Rectangle 352" width="1.105" height="1.105" transform="translate(0)" fill="#0072ce"/>
        </g>
      </g>
      <g id="Group_754" data-name="Group 754" transform="translate(29.839 30.168)">
        <g id="Group_753" data-name="Group 753" transform="translate(0 0)">
          <rect id="Rectangle_353" data-name="Rectangle 353" width="1.105" height="1.105" fill="#0072ce"/>
        </g>
      </g>
      <g id="Group_756" data-name="Group 756" transform="translate(8.841 31.273)">
        <g id="Group_755" data-name="Group 755" transform="translate(0)">
          <rect id="Rectangle_354" data-name="Rectangle 354" width="2.21" height="2.21" transform="translate(0)" fill="#0072ce"/>
        </g>
      </g>
      <g id="Group_758" data-name="Group 758" transform="translate(6.631 35.694)">
        <g id="Group_757" data-name="Group 757" transform="translate(0 0)">
          <rect id="Rectangle_355" data-name="Rectangle 355" width="1.105" height="1.105" transform="translate(0 0)" fill="#0072ce"/>
        </g>
      </g>
      <g id="Group_760" data-name="Group 760" transform="translate(8.841 56.691)">
        <g id="Group_759" data-name="Group 759" transform="translate(0 0)">
          <rect id="Rectangle_356" data-name="Rectangle 356" width="2.21" height="2.21" transform="translate(0)" fill="#0072ce"/>
        </g>
      </g>
      <g id="Group_762" data-name="Group 762" transform="translate(6.631 54.481)">
        <g id="Group_761" data-name="Group 761" transform="translate(0 0)">
          <rect id="Rectangle_357" data-name="Rectangle 357" width="1.105" height="1.105" fill="#0072ce"/>
        </g>
      </g>
      <g id="Group_764" data-name="Group 764" transform="translate(23.208 26.853)">
        <g id="Group_763" data-name="Group 763" transform="translate(0 0)">
          <rect id="Rectangle_358" data-name="Rectangle 358" width="2.21" height="2.21" fill="#0072ce"/>
        </g>
      </g>
      <g id="Group_766" data-name="Group 766" transform="translate(26.523 29.063)">
        <g id="Group_765" data-name="Group 765" transform="translate(0 0)">
          <rect id="Rectangle_359" data-name="Rectangle 359" width="1.105" height="2.21" transform="translate(0 0)" fill="#0072ce"/>
        </g>
      </g>
      <g id="Group_768" data-name="Group 768" transform="translate(35.364 45.64)">
        <g id="Group_767" data-name="Group 767" transform="translate(0 0)">
          <rect id="Rectangle_360" data-name="Rectangle 360" width="2.21" height="1.105" transform="translate(0)" fill="#0072ce"/>
        </g>
      </g>
      <g id="Group_770" data-name="Group 770" transform="translate(16.908 40.908)">
        <g id="Group_769" data-name="Group 769">
          <path id="Path_3947" data-name="Path 3947" d="M188.411,208a4.411,4.411,0,1,0,4.411,4.411A4.415,4.415,0,0,0,188.411,208Zm0,7.351a2.941,2.941,0,1,1,2.941-2.941A2.943,2.943,0,0,1,188.411,215.351Z" transform="translate(-184 -208)" fill="#0072ce"/>
        </g>
      </g>
      <g id="Group_772" data-name="Group 772" transform="translate(21.886 37.262)">
        <g id="Group_771" data-name="Group 771">
          <path id="Path_3948" data-name="Path 3948" d="M238.293,168.32l-.125,1.465a6.564,6.564,0,0,1,3.621,1.47l.931-1.138A8.031,8.031,0,0,0,238.293,168.32Z" transform="translate(-238.168 -168.32)" fill="#0072ce"/>
        </g>
      </g>
      <g id="Group_774" data-name="Group 774" transform="translate(26.782 43.041)">
        <g id="Group_773" data-name="Group 773">
          <path id="Path_3949" data-name="Path 3949" d="M293.746,231.208l-1.411.413a6.666,6.666,0,0,1,.266,1.865,6.577,6.577,0,0,1-1.153,3.734l1.213.831a8.1,8.1,0,0,0,1.085-6.843Z" transform="translate(-291.448 -231.208)" fill="#0072ce"/>
        </g>
      </g>
      <g id="Group_776" data-name="Group 776" transform="translate(14.061 38.277)">
        <g id="Group_775" data-name="Group 775">
          <path id="Path_3950" data-name="Path 3950" d="M156.3,179.368a8.072,8.072,0,0,0-3.28,3.474l1.319.65a6.613,6.613,0,0,1,2.686-2.843Z" transform="translate(-153.016 -179.368)" fill="#0072ce"/>
        </g>
      </g>
      <g id="Group_778" data-name="Group 778" transform="translate(19.488 51.486)">
        <g id="Group_777" data-name="Group 777">
          <path id="Path_3951" data-name="Path 3951" d="M216.311,323.112a6.7,6.7,0,0,1-3.9.279l-.332,1.432a8.117,8.117,0,0,0,1.83.208,8.036,8.036,0,0,0,2.935-.55Z" transform="translate(-212.08 -323.112)" fill="#0072ce"/>
        </g>
      </g>
      <g id="Group_780" data-name="Group 780" transform="translate(13.314 46.262)">
        <g id="Group_779" data-name="Group 779">
          <path id="Path_3952" data-name="Path 3952" d="M146.344,266.264l-1.456.207a8.035,8.035,0,0,0,2.048,4.318l1.083-.995A6.571,6.571,0,0,1,146.344,266.264Z" transform="translate(-144.888 -266.264)" fill="#0072ce"/>
        </g>
      </g>
      <g id="Group_782" data-name="Group 782" transform="translate(19.892 45.64)">
        <g id="Group_781" data-name="Group 781" transform="translate(0 0)">
          <rect id="Rectangle_361" data-name="Rectangle 361" width="1.105" height="1.105" fill="#0072ce"/>
        </g>
      </g>
    </g>
  </g>
</svg>
