<svg xmlns="http://www.w3.org/2000/svg" width="73" height="74.315" viewBox="0 0 73 74.315">
  <g id="Group_796" data-name="Group 796" transform="translate(-1021 -1246)">
    <g id="Ellipse_10" data-name="Ellipse 10" transform="translate(1021 1246)" fill="none" stroke="#ff4e00" stroke-width="3">
      <ellipse cx="36.5" cy="37.158" rx="36.5" ry="37.158" stroke="none"/>
      <ellipse cx="36.5" cy="37.158" rx="35" ry="35.658" fill="none"/>
    </g>
    <g id="car" transform="translate(1031 1257)">
      <g id="Group_786" data-name="Group 786">
        <g id="Group_785" data-name="Group 785">
          <path id="Path_3953" data-name="Path 3953" d="M44.6,7.652A26.127,26.127,0,1,0,7.655,44.6a26.124,26.124,0,0,0,35.317,1.5.765.765,0,0,0-.987-1.17,24.608,24.608,0,1,1,2.48-2.41.766.766,0,0,0,1.141,1.021,26.125,26.125,0,0,0-1-35.891Z" fill="#0072ce"/>
        </g>
      </g>
      <g id="Group_788" data-name="Group 788" transform="translate(3.572 3.567)">
        <g id="Group_787" data-name="Group 787">
          <path id="Path_3954" data-name="Path 3954" d="M57.558,34.951A22.559,22.559,0,1,0,80.114,57.51,22.583,22.583,0,0,0,57.558,34.951ZM36.534,57.51A21.052,21.052,0,0,1,56.6,36.5l-3.975,17.93L38.771,66.942A20.9,20.9,0,0,1,36.534,57.51Zm20.258-14.8v13.3L45.321,63.091l8.511-7.684a.766.766,0,0,0,.2-.289A.757.757,0,0,0,54.066,55Zm.766,35.83a21.028,21.028,0,0,1-17.881-9.979l11.63-4.4a.765.765,0,0,0-.542-1.432l-5.008,1.9,11.8-7.285,11.8,7.286L57.829,60.255a.767.767,0,0,0-.542,0l-3.436,1.3a.765.765,0,0,0,.542,1.432l3.165-1.2L75.439,68.56A21.029,21.029,0,0,1,57.558,78.539Zm4.934-24.1-.81-3.656a.765.765,0,1,0-1.495.331l.857,3.864a.761.761,0,0,0,.24.433l8.508,7.681L58.325,56.009V42.715l.229,1.035c0,.01.005.019.008.028l.932,4.2a.765.765,0,1,0,1.495-.331L58.517,36.5A21.022,21.022,0,0,1,76.346,66.941Z" transform="translate(-35.003 -34.951)" fill="#0072ce"/>
        </g>
      </g>
    </g>
  </g>
</svg>
