<svg xmlns="http://www.w3.org/2000/svg" width="72" height="73" viewBox="0 0 72 73">
  <g id="Group_794" data-name="Group 794" transform="translate(-215 -1247)">
    <g id="Group_213" data-name="Group 213" transform="translate(214.679 1246.838)">
      <g id="Ellipse_7" data-name="Ellipse 7" transform="translate(0.321 0.162)" fill="none" stroke="#ff4e00" stroke-width="3">
        <ellipse cx="36" cy="36.5" rx="36" ry="36.5" stroke="none"/>
        <ellipse cx="36" cy="36.5" rx="34.5" ry="35" fill="none"/>
      </g>
    </g>
    <g id="_3" data-name="3" transform="translate(228 1259)">
      <path id="Path_3935" data-name="Path 3935" d="M36.487,16A11.487,11.487,0,1,0,47.975,27.487,11.5,11.5,0,0,0,36.487,16Zm0,21.242-1.968-1.968,1.255-2.091a5.837,5.837,0,0,0,.713.049Zm0-5.446A4.308,4.308,0,1,1,40.8,27.487,4.312,4.312,0,0,1,36.487,31.8Zm-4.059-8.367L29.59,20.591h2.783l.592,2.37A5.732,5.732,0,0,0,32.428,23.428Zm-1.684,4.059H26.733L28.7,25.519l2.091,1.255A5.836,5.836,0,0,0,30.744,27.487Zm1.684,4.059-2.837,2.837V31.6l2.37-.592A5.649,5.649,0,0,0,32.428,31.547Zm4.059-13.814L38.455,19.7,37.2,21.793a5.837,5.837,0,0,0-.713-.049Zm4.059,13.814,2.837,2.837H40.6l-.592-2.37A5.649,5.649,0,0,0,40.547,31.547Zm1.684-4.059h4.011l-1.968,1.968L42.182,28.2A5.834,5.834,0,0,0,42.231,27.487Zm-1.684-4.059,2.837-2.838v2.783l-2.37.592a5.729,5.729,0,0,0-.467-.537ZM39.4,22.545a5.673,5.673,0,0,0-.75-.375l1.615-2.691L38.41,17.625A10,10,0,0,1,42.5,19.449Zm-4.348-.612a5.659,5.659,0,0,0-.8.263l-.76-3.041H30.872a10,10,0,0,1,4.179-1.6Zm-3.507,2.643a5.671,5.671,0,0,0-.375.75l-2.691-1.615-1.853,1.854a10,10,0,0,1,1.824-4.086Zm-.612,4.348a5.659,5.659,0,0,0,.263.8l-3.041.76V33.1a10,10,0,0,1-1.6-4.179Zm2.643,3.507a5.671,5.671,0,0,0,.75.375L32.711,35.5l1.854,1.853a9.991,9.991,0,0,1-4.086-1.824Zm4.348.612a5.659,5.659,0,0,0,.8-.263l.76,3.041H42.1a10,10,0,0,1-4.179,1.6ZM41.43,30.4a5.672,5.672,0,0,0,.375-.75L44.5,31.264l1.853-1.854A9.991,9.991,0,0,1,44.526,33.5Zm.612-4.348a5.658,5.658,0,0,0-.263-.8l3.041-.76V21.872a10,10,0,0,1,1.6,4.179Z" transform="translate(-6.769 -3.384)" fill="#0072ce"/>
      <path id="Path_3936" data-name="Path 3936" d="M39.872,28a2.872,2.872,0,1,0,2.872,2.872A2.875,2.875,0,0,0,39.872,28Zm0,4.308a1.436,1.436,0,1,1,1.436-1.436A1.437,1.437,0,0,1,39.872,32.308Z" transform="translate(-10.153 -6.769)" fill="#0072ce"/>
      <path id="Path_3937" data-name="Path 3937" d="M20.154,48a2.154,2.154,0,1,0,2.154,2.154A2.157,2.157,0,0,0,20.154,48Zm0,2.872a.718.718,0,1,1,.718-.718A.719.719,0,0,1,20.154,50.872Z" transform="translate(-4.795 -12.41)" fill="#0072ce"/>
      <path id="Path_3938" data-name="Path 3938" d="M45.514,9.026A5.031,5.031,0,0,0,40.488,4H27.565a5.031,5.031,0,0,0-5.026,5.026v1.015c-.167.085-.332.172-.495.263A2.864,2.864,0,0,0,16.8,11.9a2.838,2.838,0,0,0,.856,2.03,15.956,15.956,0,0,0-1.574,2.228V14.769a2.157,2.157,0,0,0-2.154-2.154H12.487a2.157,2.157,0,0,0-2.154,2.154v2.154H8.9V11.9A2.157,2.157,0,0,0,6.744,9.744H5.308A2.157,2.157,0,0,0,3.154,11.9v5.026A2.157,2.157,0,0,0,1,19.077V29.129a2.157,2.157,0,0,0,2.154,2.154v6.462A2.157,2.157,0,0,0,5.308,39.9H6.744A2.157,2.157,0,0,0,8.9,37.744V31.283h1.436v6.462a5.031,5.031,0,0,0,5.026,5.026h9.466a2.151,2.151,0,0,0,2.022,1.436h1.436a2.157,2.157,0,0,0,2.154-2.154V39.88A15.814,15.814,0,0,0,45.514,24.1c0-.241-.007-.48-.018-.718h.018ZM19.667,10.462a1.425,1.425,0,0,1,1.154.6,15.885,15.885,0,0,0-2.19,1.806,1.4,1.4,0,0,1-.4-.969A1.437,1.437,0,0,1,19.667,10.462ZM13.992,22.667h-1.5V24.1h1.436a15.843,15.843,0,0,0,.266,2.872H5.308V21.231H14.19c-.087.472-.154.951-.2,1.436Zm-2.222-7.9a.719.719,0,0,1,.718-.718h1.436a.719.719,0,0,1,.718.718v2.154H11.769ZM4.59,11.9a.719.719,0,0,1,.718-.718H6.744a.719.719,0,0,1,.718.718v5.026H4.59ZM2.436,29.129V19.077a.719.719,0,0,1,.718-.718H15.009q-.276.7-.484,1.436H5.308a1.437,1.437,0,0,0-1.436,1.436v5.744a1.437,1.437,0,0,0,1.436,1.436h9.218q.208.733.484,1.436H3.154a.719.719,0,0,1-.718-.718Zm5.026,8.616a.719.719,0,0,1-.718.718H5.308a.719.719,0,0,1-.718-.718V31.283H7.462Zm4.308,0V31.283h3.887a15.874,15.874,0,0,0,9.036,7.791v2.26H15.359a3.594,3.594,0,0,1-3.59-3.59ZM28.283,42.77H26.847a.719.719,0,0,1-.718-.718v-2.57a15.76,15.76,0,0,0,2.872.4v2.172A.719.719,0,0,1,28.283,42.77Zm1.436-4.308A14.359,14.359,0,1,1,44.078,24.1,14.376,14.376,0,0,1,29.718,38.462Zm0-30.154a15.711,15.711,0,0,0-5.744,1.086V9.026a3.594,3.594,0,0,1,3.59-3.59H40.488a3.594,3.594,0,0,1,3.59,3.59v8.509A15.813,15.813,0,0,0,29.718,8.308Z" fill="#0072ce"/>
      <path id="Path_3939" data-name="Path 3939" d="M56.154,8a2.154,2.154,0,1,0,2.154,2.154A2.157,2.157,0,0,0,56.154,8Zm0,2.872a.718.718,0,1,1,.718-.718A.719.719,0,0,1,56.154,10.872Z" transform="translate(-14.948 -1.128)" fill="#0072ce"/>
      <path id="Path_3940" data-name="Path 3940" d="M9,30h1.436v1.436H9Z" transform="translate(-2.256 -7.333)" fill="#0072ce"/>
      <path id="Path_3941" data-name="Path 3941" d="M13,30h1.436v1.436H13Z" transform="translate(-3.384 -7.333)" fill="#0072ce"/>
    </g>
  </g>
</svg>
