<svg xmlns="http://www.w3.org/2000/svg" width="98.619" height="55" viewBox="0 0 98.619 55">
  <path id="film" d="M97.6,4.905a2.329,2.329,0,0,0-2.068-.033L72.9,15.807V9.246C72.894,4.142,68.221.006,62.454,0H10.447C4.68.006.007,4.142,0,9.246V45.754c.007,5.1,4.68,9.24,10.447,9.246H62.454c5.767-.006,10.44-4.142,10.447-9.246V39.312L95.529,50.247a2.327,2.327,0,0,0,2.067-.033,1.819,1.819,0,0,0,1.023-1.591V6.5A1.818,1.818,0,0,0,97.6,4.906ZM68.72,45.754c0,3.063-2.808,5.544-6.268,5.548h-52c-3.461,0-6.264-2.485-6.268-5.548V9.246c0-3.062,2.808-5.544,6.268-5.548H62.454c3.46,0,6.264,2.486,6.268,5.548Zm25.721-.247L72.9,35.1V20.021L94.441,9.612Zm0,0" transform="translate(0 0)" fill="#4abdff"/>
</svg>
