<svg id="outline-phone-24px" xmlns="http://www.w3.org/2000/svg" width="48" height="48" viewBox="0 0 48 48">
  <g id="Bounding_Boxes">
    <path id="Path_2750" data-name="Path 2750" d="M0,0H48V48H0Z" fill="none"/>
  </g>
  <g id="Outline" transform="translate(6 6)">
    <path id="Path_2751" data-name="Path 2751" d="M10.08,7a24.625,24.625,0,0,0,.9,5.18l-2.4,2.4A29.651,29.651,0,0,1,7.06,7h3.02M29.8,31.04a25.505,25.505,0,0,0,5.2.9v2.98a30.853,30.853,0,0,1-7.6-1.5l2.4-2.38M12,3H5A2.006,2.006,0,0,0,3,5,34,34,0,0,0,37,39a2.006,2.006,0,0,0,2-2V30.02a2.006,2.006,0,0,0-2-2,22.814,22.814,0,0,1-7.14-1.14,1.679,1.679,0,0,0-.62-.1,2.049,2.049,0,0,0-1.42.58l-4.4,4.4A30.3,30.3,0,0,1,10.24,18.58l4.4-4.4a2.007,2.007,0,0,0,.5-2.04A22.721,22.721,0,0,1,14,5a2.006,2.006,0,0,0-2-2Z" transform="translate(-3 -3)" fill="#fff"/>
  </g>
</svg>
