<svg id="Capa_1" enable-background="new 0 0 480 480" height="512" viewBox="0 0 480 480" width="512" xmlns="http://www.w3.org/2000/svg"><path d="m301.766 291.963-13.813 8.074c15.435 26.492 6.471 60.481-20.022 75.916-8.48 4.94-18.117 7.545-27.931 7.547v16c39.497-.009 71.509-32.035 71.5-71.532-.003-12.651-3.362-25.076-9.734-36.005z"/><path d="m285.043 272.47c-12.745-10.321-28.644-15.958-45.043-15.97v16c12.737-.053 25.096 4.327 34.957 12.39z"/><path d="m240 224c-57.438 0-104 46.562-104 104s46.562 104 104 104 104-46.562 104-104c-.065-57.411-46.589-103.935-104-104zm0 192c-48.601 0-88-39.399-88-88s39.399-88 88-88 88 39.399 88 88c-.055 48.578-39.422 87.945-88 88z"/><path d="m48 40h16v16h-16z"/><path d="m472 80h-8v-56c0-4.418-3.582-8-8-8h-64c-4.418 0-8 3.582-8 8v56h-8c-4.418 0-8 3.582-8 8v80c.001 1.242.292 2.466.851 3.575h-.006l31.155 62.314v142.111c-.025 22.081-17.919 39.975-40 40h-16.4c20.937-24.538 32.427-55.744 32.4-88 0-74.99-61.01-136-136-136s-136 61.01-136 136c-.027 32.256 11.463 63.462 32.4 88h-16.4c-22.081-.025-39.975-17.919-40-40v-142.111l31.155-62.311h-.006c.559-1.11.851-2.335.851-3.578v-80c0-4.418-3.582-8-8-8h-8v-56c0-4.418-3.582-8-8-8h-64c-4.418 0-8 3.582-8 8v56h-8c-4.418 0-8 3.582-8 8v80c.001 1.242.292 2.466.851 3.575h-.006l31.155 62.314v142.111c.055 48.578 39.422 87.945 88 88h240c48.578-.055 87.945-39.422 88-88v-142.111l31.155-62.311h-.006c.559-1.11.851-2.335.851-3.578v-80c0-4.418-3.582-8-8-8zm-72-48h48v48h-16v-16h-16v16h-16zm32 64v16h-16v-16zm-400-64h48v48h-16v-16h-16v16h-16zm32 64v16h-16v-16zm-48 0h16v18c.008 7.729 6.271 13.992 14 14h20c7.729-.008 13.992-6.271 14-14v-18h16v64h-80zm12.944 96-8-16h70.112l-8 16zm8 16h38.112l-8 16h-22.112zm83.056 240c-39.746-.045-71.955-32.254-72-72v-136h16v136c.035 30.914 25.086 55.965 56 56h32.471c7.283 6.142 15.188 11.504 23.587 16zm0-120c0-66.274 53.726-120 120-120s120 53.726 120 120-53.726 120-120 120c-66.243-.075-119.925-53.757-120-120zm312 48c-.045 39.746-32.254 71.955-72 72h-56.058c8.399-4.496 16.304-9.858 23.587-16h32.471c30.914-.035 55.965-25.086 56-56v-136h16zm3.056-152h-22.112l-8-16h38.112zm16-32h-54.112l-8-16h70.112zm12.944-32h-80v-64h16v18c.008 7.729 6.271 13.992 14 14h20c7.729-.008 13.992-6.271 14-14v-18h16z"/><path d="m416 40h16v16h-16z"/></svg>