<svg height="512pt"   viewBox="0 0 512 512" width="512pt" xmlns="http://www.w3.org/2000/svg"><path  d="m494.933594 121.035156v-18.636718c0-9.425782-7.640625-17.066407-17.066406-17.066407h-25.601563v-8.53125c-.015625-6.070312-3.269531-11.671875-8.53125-14.695312v-10.90625c0-14.136719-11.460937-25.597657-25.601563-25.597657-14.136718 0-25.597656 11.460938-25.597656 25.597657v10.90625c-5.265625 3.023437-8.515625 8.625-8.535156 14.695312v8.53125h-25.601562v-34.132812c-.027344-28.265625-22.933594-51.1718752-51.199219-51.199219h-102.398438c-28.265625.0273438-51.171875 22.933594-51.199219 51.199219v34.132812h-25.601562v-8.53125c-.019531-6.070312-3.269531-11.671875-8.535156-14.695312v-10.90625c0-14.136719-11.460938-25.597657-25.597656-25.597657-14.140626 0-25.601563 11.460938-25.601563 25.597657v10.90625c-5.261719 3.023437-8.515625 8.625-8.53125 14.695312v8.53125h-25.601563c-9.425781 0-17.066406 7.640625-17.066406 17.066407v18.636718c-10.191406 3.605469-17.0234372 13.222656-17.066406 24.03125v25.601563c.0429688 10.808593 6.875 20.425781 17.066406 24.027343v242.074219c-10.191406 3.605469-17.0234372 13.21875-17.066406 24.03125v25.597657c0 14.140624 11.460938 25.601562 25.601562 25.601562h460.796876c14.140624 0 25.601562-11.460938 25.601562-25.601562v-25.597657c-.042969-10.8125-6.875-20.425781-17.066406-24.03125v-242.074219c10.191406-3.601562 17.023437-13.21875 17.066406-24.027343v-25.601563c-.042969-10.808594-6.875-20.425781-17.066406-24.03125zm-17.066406-18.636718v17.066406h-25.601563v-17.066406zm-76.800782-25.597657h34.132813v42.664063h-34.132813zm8.535156-25.601562c0-4.710938 3.820313-8.53125 8.53125-8.53125 4.714844 0 8.535157 3.820312 8.535157 8.53125v8.535156h-17.066407zm-238.933593 0c0-18.851563 15.28125-34.132813 34.132812-34.132813h102.398438c18.851562 0 34.132812 15.28125 34.132812 34.132813v34.132812h-17.066406v-25.597656c0-14.140625-11.460937-25.601563-25.597656-25.601563h-85.335938c-14.136719 0-25.597656 11.460938-25.597656 25.601563v25.597656h-17.066406zm136.53125 34.132812h-102.398438v-25.597656c0-4.714844 3.820313-8.535156 8.53125-8.535156h85.335938c4.710937 0 8.53125 3.820312 8.53125 8.535156zm-145.066407 17.066407h221.867188v17.066406h-256v-17.066406zm-85.332031-25.597657h34.132813v42.664063h-34.132813zm8.53125-25.601562c0-4.710938 3.820313-8.53125 8.535157-8.53125 4.710937 0 8.53125 3.820312 8.53125 8.53125v8.535156h-17.066407zm-51.199219 51.199219h25.601563v17.066406h-25.601563zm443.734376 332.800781h-443.734376v-238.933594h443.734376zm17.066406 51.199219c0 4.714843-3.820313 8.535156-8.535156 8.535156h-460.796876c-4.714843 0-8.535156-3.820313-8.535156-8.535156v-25.597657c0-4.714843 3.820313-8.535156 8.535156-8.535156h460.796876c4.714843 0 8.535156 3.820313 8.535156 8.535156zm0-315.730469c0 4.710937-3.820313 8.53125-8.535156 8.53125h-460.796876c-4.714843 0-8.535156-3.820313-8.535156-8.53125v-25.601563c0-4.710937 3.820313-8.53125 8.535156-8.53125h460.796876c4.714843 0 8.535156 3.820313 8.535156 8.53125zm0 0"/><path d="m76.800781 298.667969h8.53125v8.53125c0 9.425781 7.640625 17.066406 17.066407 17.066406h17.066406c9.425781 0 17.070312-7.640625 17.070312-17.066406v-8.53125h8.53125c9.425782 0 17.066406-7.640625 17.066406-17.066407v-17.066406c0-9.425781-7.640624-17.070312-17.066406-17.070312h-8.53125v-8.53125c0-9.425782-7.644531-17.066406-17.070312-17.066406h-17.066406c-9.425782 0-17.066407 7.640624-17.066407 17.066406v8.53125h-8.53125c-9.425781 0-17.066406 7.644531-17.066406 17.070312v17.066406c0 9.425782 7.640625 17.066407 17.066406 17.066407zm0-34.132813h17.066407c4.710937 0 8.53125-3.824218 8.53125-8.535156v-17.066406h17.066406v17.066406c0 4.710938 3.824218 8.535156 8.535156 8.535156h17.066406v17.066406h-17.066406c-4.710938 0-8.535156 3.820313-8.535156 8.53125v17.066407h-17.066406v-17.066407c0-4.710937-3.820313-8.53125-8.53125-8.53125h-17.066407zm0 0"/><path d="m366.933594 298.667969h68.265625c9.425781 0 17.066406-7.640625 17.066406-17.066407v-17.066406c0-9.425781-7.640625-17.070312-17.066406-17.070312h-68.265625c-9.425782 0-17.066406 7.644531-17.066406 17.070312v17.066406c0 9.425782 7.640624 17.066407 17.066406 17.066407zm0-34.132813h68.265625v17.066406h-68.265625zm0 0"/><path d="m216.269531 332.800781h27.894531l-21.863281 65.570313c-1.292969 3.890625.363281 8.152344 3.945313 10.148437 3.585937 1.996094 8.082031 1.160157 10.707031-1.992187l73.660156-88.40625c4.234375-5.085938 5.148438-12.160156 2.34375-18.15625-2.804687-5.992188-8.824219-9.824219-15.441406-9.832032h-22.367187l11.332031-37.769531c1.546875-5.164062.5625-10.761719-2.65625-15.085937-3.222657-4.328125-8.300781-6.878906-13.691407-6.878906h-33.382812c-7.550781-.03125-14.214844 4.925781-16.351562 12.171874l-20.480469 68.265626c-1.546875 5.167968-.5625 10.761718 2.660156 15.089843 3.21875 4.324219 8.296875 6.875 13.691406 6.875zm20.480469-85.335937h33.382812l-11.332031 37.769531c-1.550781 5.167969-.5625 10.761719 2.65625 15.089844 3.222657 4.328125 8.296875 6.875 13.691407 6.875h22.367187l-44.714844 53.667969 11.296875-33.902344c.867188-2.605469.429688-5.464844-1.175781-7.6875-1.601563-2.226563-4.179687-3.542969-6.921875-3.542969h-39.730469zm0 0"/><path d="m59.734375 418.132812h17.066406c4.710938 0 8.53125-3.820312 8.53125-8.53125 0-4.714843-3.820312-8.535156-8.53125-8.535156h-17.066406c-4.714844 0-8.535156 3.820313-8.535156 8.535156 0 4.710938 3.820312 8.53125 8.535156 8.53125zm0 0"/><path d="m102.398438 409.601562c0 4.710938 3.820312 8.53125 8.535156 8.53125h59.734375c4.710937 0 8.53125-3.820312 8.53125-8.53125 0-4.714843-3.820313-8.535156-8.53125-8.535156h-59.734375c-4.714844 0-8.535156 3.820313-8.535156 8.535156zm0 0"/></svg>