<?xml version="1.0" encoding="iso-8859-1"?>
<!-- Generator: Adobe Illustrator 19.0.0, SVG Export Plug-In . SVG Version: 6.00 Build 0)  -->
<svg version="1.1" id="Layer_1" xmlns="http://www.w3.org/2000/svg" xmlns:xlink="http://www.w3.org/1999/xlink" x="0px" y="0px"
	 viewBox="0 0 389.12 389.12" style="enable-background:new 0 0 389.12 389.12;" xml:space="preserve">
<g>
	<g>
		<g>
			<path d="M119.808,65.024c1.024,0,2.048-1.024,2.56-2.048l1.024-6.144c0.512-1.536-0.512-3.072-2.048-3.072
				c-1.536-0.512-3.072,0.512-3.072,2.048l-1.024,6.144C117.248,63.488,117.76,64.512,119.808,65.024z"/>
			<path d="M113.152,104.448c1.024,0,2.56-0.512,2.56-2.048l4.096-23.04c0.512-1.536-0.512-3.072-2.048-3.072
				c-1.536-0.512-3.072,0.512-3.072,2.048l-4.096,23.04C110.592,102.912,111.616,104.448,113.152,104.448z"/>
			<path d="M155.136,226.304c1.024,0,2.56-1.024,2.56-2.56l0.512-8.704c0-1.024-1.024-2.56-2.56-2.56c-1.024,0-2.56,1.024-2.56,2.56
				l-0.512,8.704C152.576,224.768,153.6,226.304,155.136,226.304z"/>
			<path d="M156.672,234.496v-2.56c0-1.024-1.024-2.56-2.56-2.56c-1.024,0-2.56,1.024-2.56,2.56v2.56c0,1.024,1.024,2.56,2.56,2.56
				S156.672,236.032,156.672,234.496z"/>
			<path d="M316.416,250.368l1.024,6.144c0.512,1.024,1.536,2.048,2.56,2.048h0.512c1.536-0.512,2.56-1.536,2.048-3.072
				l-1.024-6.144c-0.512-1.536-1.536-2.56-3.072-2.048C316.928,247.808,315.904,248.832,316.416,250.368z"/>
			<path d="M312.832,233.984c0.512,1.024,1.536,2.048,2.56,2.048c0,0,0,0,0.512,0c1.536-0.512,2.56-1.536,2.048-3.072l-3.072-13.824
				c-0.512-1.536-1.536-2.56-3.072-2.048c-1.536,0.512-2.56,1.536-2.048,3.072L312.832,233.984z"/>
			<path d="M374.272,275.968c-2.048-2.56-5.632-4.096-9.216-3.584l-5.632,0.512c-1.211,0.163-2.436,0.323-3.665,0.482L301.414,36.24
				c2.579-0.374,4.993-1.733,6.298-3.472c2.048-2.56,3.072-5.632,2.048-8.704l-1.536-6.656c-1.536-6.656-7.168-11.264-13.312-11.776
				l-4.608-1.024C262.656,1.536,226.816,0,189.952,0S117.248,1.536,89.6,4.608L84.992,5.12c-6.656,1.024-11.776,5.632-13.312,11.776
				l-1.536,6.656c-0.512,3.072,0,6.144,2.048,8.704c1.507,2.26,3.847,3.68,6.405,4.073L29.294,272.984
				c-1.587-0.197-3.161-0.397-4.718-0.6h-0.512c-3.584-0.512-7.168,1.024-9.216,3.584s-2.56,5.632-2.048,8.704l2.048,11.264
				c1.536,6.656,6.656,11.264,13.312,12.288c24.32,3.243,52.351,5.771,82.432,7.437v51.443c0,6.144,4.096,12.288,10.24,14.336
				l2.048,1.024c11.776,4.096,41.472,6.656,70.656,6.656c28.16,0,55.808-2.56,68.096-6.656l3.072-1.024
				c6.144-2.048,10.24-7.68,10.24-14.336v-2.854c1.534-0.022,2.786-0.085,3.584-0.218c1.024,0,1.536,0,1.536,0
				c9.728,0,17.408-7.68,17.408-17.408c0-9.728-7.68-17.92-17.408-17.92c-1.063,0-3.117,0-5.632,0v-12.711
				c29.754-1.527,57.625-3.945,81.92-7.257l5.12-0.512c6.144-1.024,11.776-5.632,12.8-12.288l2.048-11.264
				C376.832,281.6,376.32,278.528,374.272,275.968z M152.064,252.416c-1.024,0-2.56,1.024-2.56,2.56l-1.996,26.444
				c-10.315-0.3-20.494-0.696-30.48-1.182L147.436,31.91c6.706-0.22,13.547-0.387,20.486-0.5L154.624,194.56
				c0,1.024,1.024,2.56,2.56,2.56s2.56-1.024,2.56-2.56l13.303-163.22c4.915-0.061,9.87-0.095,14.857-0.103v250.857
				c-11.864-0.052-23.653-0.233-35.286-0.534l2.006-26.584C154.624,253.952,153.6,252.416,152.064,252.416z M109.056,128
				c-1.536-0.512-3.072,0.512-3.072,2.048L81.408,276.48c0,0.62,0.091,1.152,0.325,1.605c-7.022-0.52-13.895-1.086-20.596-1.697
				l45.434-242.313c11.17-0.85,23.116-1.512,35.597-1.98l-30.353,247.88c-8.695-0.454-17.231-0.976-25.57-1.564
				c0.177-0.284,0.283-0.593,0.283-0.907l24.576-146.432C111.616,129.536,110.592,128,109.056,128z M192,31.237
				c3.953,0.006,7.894,0.025,11.813,0.065c-0.02,0.143-0.037,0.288-0.037,0.442l25.514,250.033
				c-11.282,0.223-22.712,0.335-34.218,0.335c-1.025,0-2.048-0.004-3.072-0.005V31.237z M233.94,281.679l-25.543-250.32
				c7.097,0.095,14.109,0.246,20.989,0.452l35.552,248.865C254.782,281.107,244.432,281.442,233.94,281.679z M270.171,280.445
				L234.676,31.982c5.209,0.18,10.332,0.391,15.344,0.635l45.916,244.886c0.263,0.527,0.663,1.05,1.128,1.438
				C288.302,279.523,279.322,280.024,270.171,280.445z M301.056,276.48L255.384,32.896c5.275,0.287,10.422,0.608,15.395,0.97
				l34.374,164.79c0.512,1.024,1.536,2.048,2.56,2.048c0.512,0,0.512,0,0.512,0c1.536-0.512,2.56-1.536,2.048-3.072L276.198,34.277
				c4.992,0.4,9.773,0.844,14.36,1.323L345.34,274.65c-14.068,1.619-29.142,2.974-44.951,4.066
				C301.103,278.16,301.368,277.416,301.056,276.48z M81.408,19.968c0.512-2.56,2.56-4.096,4.608-4.096l5.12-0.512
				c27.136-3.072,62.464-5.12,99.328-5.12c36.352,0,71.68,2.048,99.328,5.12h4.096c2.56,0.512,4.096,2.048,4.608,4.096l1.536,6.656
				l-6.144-0.512c-28.672-3.072-65.536-4.096-103.936-4.096c-37.888,0-74.752,1.024-103.424,4.096l-6.144,0.512L81.408,19.968z
				 M89.416,35.597c3.798-0.39,7.722-0.754,11.762-1.092L55.917,275.899c-5.535-0.531-10.943-1.094-16.213-1.686L89.416,35.597z
				 M261.12,371.712l-3.072,1.024c-27.136,9.216-104.96,9.216-131.584-0.512l-2.048-0.512c-2.048-0.512-3.584-2.56-3.584-4.608
				v-21.729c0.17,0.075,0.338,0.155,0.512,0.225l2.048,0.512c11.776,4.096,40.96,7.68,69.632,7.68
				c18.184,0,35.883-2.356,49.048-3.904c1.658,7.703,8.297,13.377,16.488,13.607v0.537c1.923,0,4.03,0.037,6.144,0.081v2.991
				C264.704,369.152,263.168,371.2,261.12,371.712z M262.482,334.336c5.06,1.522,8.878,6.298,8.878,11.776
				c0,6.656-5.632,12.288-12.288,12.288c-6.656,0-12.288-5.632-12.288-12.288c0-6.333,4.64-11.728,11.264-12.238v0.462
				C259.02,334.336,260.601,334.336,262.482,334.336z M292.352,346.624c0,6.656-5.632,12.288-12.288,12.288c-0.44,0-2.77,0-6.012,0
				c-0.43-0.627-1.012-1.116-1.705-1.464c2.581-3.031,4.134-6.973,4.134-11.336c0-4.452-1.729-8.464-4.474-11.518
				c0.129-0.081,0.254-0.166,0.374-0.258c3.465,0,6.479,0,7.683,0C286.72,334.336,292.352,339.968,292.352,346.624z
				 M264.192,328.954c-0.609,0.03-1.209,0.061-1.789,0.09c-1.086-0.221-2.201-0.339-3.331-0.339c-9.27,0-16.664,6.979-17.341,16.053
				c-44.052,5.48-87.94,6.868-116.803-3.765l-2.048-0.512c-0.749-0.25-1.435-0.625-2.048-1.089v-23.201
				c23.871,1.149,48.879,1.761,74.24,1.761c23.514,0,46.781-0.491,69.12-1.471V328.954z M363.52,293.888
				c0,2.048-2.048,3.584-4.096,4.096l-5.12,0.512c-44.032,6.144-100.864,9.728-159.744,9.728c-60.928,0-119.808-4.096-165.888-10.24
				c-2.048-0.512-3.584-2.048-4.096-4.096l-2.048-11.264l1.024-0.512c47.616,6.144,108.544,9.216,171.52,9.216
				c60.928,0,119.808-2.56,165.888-8.704l5.632-0.512L363.52,293.888z"/>
		</g>
	</g>
</g>
<g>
</g>
<g>
</g>
<g>
</g>
<g>
</g>
<g>
</g>
<g>
</g>
<g>
</g>
<g>
</g>
<g>
</g>
<g>
</g>
<g>
</g>
<g>
</g>
<g>
</g>
<g>
</g>
<g>
</g>
</svg>
