<svg id="Layer_3" enable-background="new 0 0 64 64" height="512" viewBox="0 0 64 64" width="512" xmlns="http://www.w3.org/2000/svg"><path d="m53 1h-21c-.265 0-.52.105-.707.293l-4.293 4.293-2.293-2.293c-.391-.391-1.023-.391-1.414 0l-2.293 2.293-4.293-4.293c-.187-.188-.442-.293-.707-.293h-7c-.552 0-1 .448-1 1v4c0 .552.448 1 1 1h4.586l3 3-2.293 2.293c-.391.391-.391 1.023 0 1.414l2.293 2.293-4.293 4.293c-.188.187-.293.442-.293.707v39c0 1.654 1.346 3 3 3h38c1.654 0 3-1.346 3-3v-56c0-1.654-1.346-3-3-3zm-38.293 4.293c-.187-.188-.442-.293-.707-.293h-4v-2h5.586l4 4-1.586 1.586zm1.707 7.707 7.586-7.586 1.586 1.586-7.586 7.586zm16-10h20.586c.551 0 1 .449 1 1v19h-40v-1.586zm21.586 22v30h-40v-30zm-1 36h-38c-.551 0-1-.449-1-1v-3h40v3c0 .551-.449 1-1 1z"/><path d="m37 15h12c1.654 0 3-1.346 3-3v-4c0-1.654-1.346-3-3-3h-12c-1.654 0-3 1.346-3 3v4c0 1.654 1.346 3 3 3zm-1-7c0-.551.449-1 1-1h12c.551 0 1 .449 1 1v4c0 .551-.449 1-1 1h-12c-.551 0-1-.449-1-1z"/><path d="m26.907 49.734c1.66 2.076 4.137 3.266 6.795 3.266h.597c2.658 0 5.134-1.19 6.795-3.266 1.229-1.537 1.906-3.467 1.906-5.436 0-2.343-.649-4.636-1.877-6.631l-6.271-10.191c-.364-.592-1.339-.592-1.703 0l-6.271 10.191c-1.229 1.996-1.878 4.289-1.878 6.631 0 1.969.677 3.899 1.907 5.436zm1.673-11.019 5.42-8.807 5.42 8.807c1.034 1.68 1.58 3.611 1.58 5.583 0 1.516-.521 3.003-1.468 4.187-1.28 1.598-3.187 2.515-5.234 2.515h-.597c-2.047 0-3.954-.917-5.233-2.515-.947-1.184-1.468-2.671-1.468-4.187 0-1.972.546-3.903 1.58-5.583z"/><path d="m39 44h-2c0 1.654-1.346 3-3 3v2c2.757 0 5-2.243 5-5z"/></svg>