<svg xmlns="http://www.w3.org/2000/svg" width="24" height="26.716" viewBox="0 0 24 26.716">
  <g id="Group_308" data-name="Group 308" transform="translate(-135 -2800.321)">
    <g id="mercedes-benz" transform="translate(145.861 2800.321)">
      <g id="Group_297" data-name="Group 297">
        <g id="Group_296" data-name="Group 296">
          <path id="Path_3778" data-name="Path 3778" d="M11.215,1.924a6.569,6.569,0,1,0-9.29,9.291,6.569,6.569,0,0,0,8.88.377.192.192,0,0,0-.248-.294,6.187,6.187,0,1,1,.623-.606.192.192,0,0,0,.287.257,6.569,6.569,0,0,0-.252-9.024Z"/>
        </g>
      </g>
      <g id="Group_299" data-name="Group 299" transform="translate(0.898 0.897)">
        <g id="Group_298" data-name="Group 298">
          <path id="Path_3779" data-name="Path 3779" d="M40.674,34.951a5.672,5.672,0,1,0,5.672,5.672A5.678,5.678,0,0,0,40.674,34.951Zm-5.286,5.672a5.293,5.293,0,0,1,5.045-5.282l-1,4.508L35.95,42.995A5.256,5.256,0,0,1,35.388,40.623ZM40.482,36.9v3.344L37.6,42.026l2.14-1.932a.192.192,0,0,0,.05-.073.19.19,0,0,0,.009-.029Zm.193,9.009a5.287,5.287,0,0,1-4.5-2.509L39.1,42.294a.192.192,0,0,0-.136-.36l-1.259.477,2.967-1.832,2.968,1.832-2.9-1.1a.193.193,0,0,0-.136,0l-.864.327a.192.192,0,0,0,.136.36l.8-.3,4.5,1.7A5.288,5.288,0,0,1,40.674,45.911Zm1.241-6.061-.2-.919a.192.192,0,1,0-.376.083l.215.972a.191.191,0,0,0,.06.109l2.139,1.931-2.883-1.78V36.9l.058.26,0,.007.234,1.057a.192.192,0,1,0,.376-.083l-.621-2.8A5.286,5.286,0,0,1,45.4,42.995Z" transform="translate(-35.003 -34.951)"/>
        </g>
      </g>
    </g>
    <g id="rearview-mirror" transform="translate(135 2812.103)">
      <g id="Group_301" data-name="Group 301" transform="translate(1.659 1.659)">
        <g id="Group_300" data-name="Group 300">
          <path id="Path_3780" data-name="Path 3780" d="M56.678,111.709l-1.019-3.056a2.9,2.9,0,0,0-2.755-1.985H48.22a5.554,5.554,0,0,0-5.553,5.553,1.917,1.917,0,0,0,1.915,1.915H54.929a1.844,1.844,0,0,0,1.843-1.842A1.877,1.877,0,0,0,56.678,111.709Zm-1.749,1.6H44.582A1.086,1.086,0,0,1,43.5,112.22,4.723,4.723,0,0,1,48.22,107.5H52.9a2.071,2.071,0,0,1,1.967,1.418l1.018,3.054a1.03,1.03,0,0,1,.053.322A1.014,1.014,0,0,1,54.929,113.3Z" transform="translate(-42.667 -106.667)"/>
        </g>
      </g>
      <g id="Group_303" data-name="Group 303" transform="translate(0 0)">
        <g id="Group_302" data-name="Group 302">
          <path id="Path_3781" data-name="Path 3781" d="M19.5,67.319h-.83a.415.415,0,0,0-.414.385c0,.019-.143,1.782-1.146,2.062l-.883-2.646A4.558,4.558,0,0,0,11.9,64H7.212A7.214,7.214,0,0,0,0,71.212a3.578,3.578,0,0,0,3.574,3.574H13.69c2.611,0,4.588,3.88,4.607,3.919a.415.415,0,0,0,.371.229h.83a.415.415,0,0,0,.415-.415V67.734A.415.415,0,0,0,19.5,67.319ZM3.574,73.956h0A2.747,2.747,0,0,1,.83,71.212,6.383,6.383,0,0,1,7.212,64.83H11.9a3.729,3.729,0,0,1,3.542,2.553l1.019,3.053a2.722,2.722,0,0,1,.138.848,2.675,2.675,0,0,1-2.672,2.672H3.574ZM19.083,78.1h-.165a9.533,9.533,0,0,0-3.455-3.692,3.418,3.418,0,0,0,1.877-3.845c1.184-.32,1.573-1.725,1.692-2.419h.051Z" transform="translate(0 -64)"/>
        </g>
      </g>
      <g id="Group_305" data-name="Group 305" transform="translate(4.148 4.148)">
        <g id="Group_304" data-name="Group 304">
          <path id="Path_3782" data-name="Path 3782" d="M109.864,170.788a.415.415,0,0,0-.587,0l-2.489,2.489a.415.415,0,1,0,.587.587l2.489-2.489A.415.415,0,0,0,109.864,170.788Z" transform="translate(-106.667 -170.667)"/>
        </g>
      </g>
      <g id="Group_307" data-name="Group 307" transform="translate(3.734 4.148)">
        <g id="Group_306" data-name="Group 306">
          <path id="Path_3783" data-name="Path 3783" d="M97.538,170.788a.415.415,0,0,0-.587,0l-.83.83a.415.415,0,1,0,.587.587l.83-.83A.415.415,0,0,0,97.538,170.788Z" transform="translate(-96 -170.667)"/>
        </g>
      </g>
    </g>
  </g>
</svg>
